<?xml version="1.0" encoding="UTF-8" standalone="no"?>
<svg
   xmlns:dc="http://purl.org/dc/elements/1.1/"
   xmlns:cc="http://creativecommons.org/ns#"
   xmlns:rdf="http://www.w3.org/1999/02/22-rdf-syntax-ns#"
   xmlns:svg="http://www.w3.org/2000/svg"
   xmlns="http://www.w3.org/2000/svg"
   xmlns:sodipodi="http://sodipodi.sourceforge.net/DTD/sodipodi-0.dtd"
   xmlns:inkscape="http://www.inkscape.org/namespaces/inkscape"
   version="1.1"
   viewBox="0 0 478.67105 228.86978"
   stroke-miterlimit="10"
   id="svg2"
   inkscape:version="0.91 r13725"
   sodipodi:docname="accelero_tilt.svg"
   width="478.67105"
   height="228.86978"
   style="fill:none;stroke:none;stroke-linecap:square;stroke-miterlimit:10">
  <metadata
     id="metadata278">
    <rdf:RDF>
      <cc:Work
         rdf:about="">
        <dc:format>image/svg+xml</dc:format>
        <dc:type
           rdf:resource="http://purl.org/dc/dcmitype/StillImage" />
        <dc:title></dc:title>
      </cc:Work>
    </rdf:RDF>
  </metadata>
  <defs
     id="defs276" />
  <sodipodi:namedview
     pagecolor="#ffffff"
     bordercolor="#666666"
     borderopacity="1"
     objecttolerance="10"
     gridtolerance="10"
     guidetolerance="10"
     inkscape:pageopacity="0"
     inkscape:pageshadow="2"
     inkscape:window-width="1920"
     inkscape:window-height="1025"
     id="namedview274"
     showgrid="false"
     fit-margin-top="0"
     fit-margin-left="0"
     fit-margin-right="0"
     fit-margin-bottom="0"
     inkscape:zoom="0.92709556"
     inkscape:cx="211.24861"
     inkscape:cy="153.11701"
     inkscape:window-x="0"
     inkscape:window-y="867"
     inkscape:window-maximized="1"
     inkscape:current-layer="g7" />
  <clipPath
     id="p39.0">
    <path
       d="M 0,0 960,0 960,720 0,720 0,0 Z"
       id="path5"
       inkscape:connector-curvature="0"
       style="clip-rule:nonzero" />
  </clipPath>
  <g
     clip-path="url(#p39.0)"
     id="g7"
     transform="translate(-230.95036,-405.35938)">
    <path
       d="M 238.08336,541.3541 351.39841,480.95829"
       id="path77"
       inkscape:connector-curvature="0"
       style="fill:#000000;fill-opacity:0;fill-rule:nonzero" />
    <path
       d="M 238.08336,541.3541 348.37409,482.57022"
       id="path79"
       inkscape:connector-curvature="0"
       style="fill-rule:evenodd;stroke:#002060;stroke-width:1;stroke-linecap:butt;stroke-linejoin:round" />
    <path
       d="m 348.37408,482.57028 -0.46347,1.52136 2.19769,-2.44571 -3.25558,0.46088 z"
       id="path81"
       inkscape:connector-curvature="0"
       style="fill:#002060;fill-rule:evenodd;stroke:#002060;stroke-width:1;stroke-linecap:butt" />
    <path
       d="m 238.08336,541.3541 113.31505,45.44275"
       id="path83"
       inkscape:connector-curvature="0"
       style="fill:#000000;fill-opacity:0;fill-rule:nonzero" />
    <path
       d="m 238.08336,541.3541 110.1342,44.16711"
       id="path85"
       inkscape:connector-curvature="0"
       style="fill-rule:evenodd;stroke:#002060;stroke-width:1;stroke-linecap:butt;stroke-linejoin:round" />
    <path
       d="m 348.2176,585.52124 -1.46237,0.62524 3.28634,0.10627 -2.44918,-2.19385 z"
       id="path87"
       inkscape:connector-curvature="0"
       style="fill:#002060;fill-rule:evenodd;stroke:#002060;stroke-width:1;stroke-linecap:butt" />
    <path
       d="m 237.91664,541.5208 0.16672,-128.51819"
       id="path89"
       inkscape:connector-curvature="0"
       style="fill:#000000;fill-opacity:0;fill-rule:nonzero" />
    <path
       d="m 237.91664,541.5208 0.16228,-125.09109"
       id="path91"
       inkscape:connector-curvature="0"
       style="fill-rule:evenodd;stroke:#002060;stroke-width:1;stroke-linecap:butt;stroke-linejoin:round" />
    <path
       d="m 238.07893,416.42972 1.12312,1.12604 -1.12057,-3.09122 -1.1286,3.08829 z"
       id="path93"
       inkscape:connector-curvature="0"
       style="fill:#002060;fill-rule:evenodd;stroke:#002060;stroke-width:1;stroke-linecap:butt" />
    <path
       d="m 245.55989,405.35938 28.81197,0 0,38.77502 -28.81197,0 z"
       id="path95"
       inkscape:connector-curvature="0"
       style="fill:#000000;fill-opacity:0;fill-rule:nonzero" />
    <path
       d="m 256.57553,422.07126 7.4375,0 0,0.29687 -8.10939,8.4375 3.43752,0 q 1.21875,0 1.54687,-0.0937 0.32813,-0.0937 0.59375,-0.39062 0.28125,-0.3125 0.625,-1.10938 l 0.4375,0 -1.01562,3.1875 -7.64064,0 0,-0.34375 8.10939,-8.4375 -3.375,0 q -1.0625,0 -1.28125,0.0625 -0.32813,0.0625 -0.65625,0.375 -0.3125,0.29688 -0.65625,0.98438 l -0.45315,0 1.00002,-2.96875 z"
       id="path97"
       inkscape:connector-curvature="0"
       style="fill:#000000;fill-rule:nonzero" />
    <path
       d="m 328.71875,450.71875 30.15832,0 0,38.77502 -30.15832,0 z"
       id="path99"
       inkscape:connector-curvature="0"
       style="fill:#000000;fill-opacity:0;fill-rule:nonzero" />
    <path
       d="m 341.54688,467.14938 q 0.40625,0.6875 0.54687,1.28125 0.15625,0.57812 0.3125,2.3125 l 0.51563,5.76562 q 0.70312,-0.84375 2.04687,-2.67187 0.64063,-0.89063 1.59375,-2.42188 0.5625,-0.9375 0.70313,-1.3125 0.0625,-0.1875 0.0625,-0.39062 0,-0.125 -0.0781,-0.20313 -0.0781,-0.0781 -0.4375,-0.1875 -0.34375,-0.125 -0.57812,-0.42187 -0.21875,-0.29688 -0.21875,-0.6875 0,-0.46875 0.28125,-0.76563 0.28125,-0.29687 0.70312,-0.29687 0.51563,0 0.875,0.4375 0.375,0.42187 0.375,1.17187 0,0.92188 -0.64062,2.10938 -0.625,1.1875 -2.4375,3.65625 -1.79688,2.45312 -4.375,5.375 -1.76563,2 -2.625,2.51562 -0.85938,0.53125 -1.46875,0.53125 -0.35938,0 -0.625,-0.28125 -0.28125,-0.28125 -0.28125,-0.64062 0,-0.45313 0.39062,-0.82813 0.375,-0.375 0.8125,-0.375 0.23438,0 0.39063,0.10938 0.0937,0.0469 0.20312,0.32812 0.10938,0.28125 0.20313,0.375 0.0625,0.0469 0.14062,0.0469 0.0781,0 0.25,-0.10938 0.64063,-0.40625 1.5,-1.26562 1.125,-1.15625 1.67188,-1.875 l -0.65625,-7.4375 q -0.17188,-1.84375 -0.5,-2.23438 -0.32813,-0.40625 -1.09375,-0.40625 -0.25,0 -0.89063,0.0781 l -0.0937,-0.4375 3.42188,-0.84375 z"
       id="path101"
       inkscape:connector-curvature="0"
       style="fill:#000000;fill-rule:nonzero" />
    <path
       d="m 336.27863,541.4375 30.15832,0 0,38.77502 -30.15832,0 z"
       id="path103"
       inkscape:connector-curvature="0"
       style="fill:#000000;fill-opacity:0;fill-rule:nonzero" />
    <path
       d="m 349.43488,557.8681 q 0.57813,0.60938 0.875,1.21875 0.20313,0.42188 0.6875,2.21875 l 1.03125,-1.54687 q 0.40625,-0.5625 0.98438,-1.0625 0.59375,-0.51563 1.04687,-0.70313 0.28125,-0.125 0.625,-0.125 0.5,0 0.79688,0.28125 0.29687,0.26563 0.29687,0.64063 0,0.45312 -0.17187,0.60937 -0.32813,0.29688 -0.75,0.29688 -0.25,0 -0.53125,-0.10938 -0.54688,-0.1875 -0.73438,-0.1875 -0.28125,0 -0.67187,0.32813 -0.71875,0.60937 -1.73438,2.35937 l 0.96875,4.03125 q 0.21875,0.92188 0.35938,1.10938 0.15625,0.1875 0.3125,0.1875 0.25,0 0.57812,-0.28125 0.64063,-0.53125 1.09375,-1.40625 l 0.42188,0.21875 q -0.75,1.375 -1.875,2.29687 -0.65625,0.51563 -1.09375,0.51563 -0.65625,0 -1.04688,-0.73438 -0.25,-0.46875 -1.01562,-3.9375 -1.82813,3.17188 -2.9375,4.07813 -0.70313,0.59375 -1.375,0.59375 -0.46875,0 -0.85938,-0.34375 -0.28125,-0.25 -0.28125,-0.6875 0,-0.39063 0.26563,-0.64063 0.25,-0.26562 0.625,-0.26562 0.375,0 0.79687,0.375 0.3125,0.26562 0.46875,0.26562 0.14063,0 0.35938,-0.1875 0.5625,-0.4375 1.5,-1.90625 0.95312,-1.48437 1.25,-2.14062 -0.73438,-2.84375 -0.78125,-3.01563 -0.28125,-0.76562 -0.71875,-1.07812 -0.42188,-0.3125 -1.26563,-0.3125 -0.26562,0 -0.625,0.0156 l 0,-0.42187 3.125,-0.54688 z"
       id="path105"
       inkscape:connector-curvature="0"
       style="fill:#000000;fill-rule:nonzero" />
    <path
       d="m 238.16673,541.4375 -0.16672,68.03906"
       id="path107"
       inkscape:connector-curvature="0"
       style="fill:#000000;fill-opacity:0;fill-rule:nonzero" />
    <path
       d="m 238.16673,541.4375 -0.14153,57.75781"
       id="path109"
       inkscape:connector-curvature="0"
       style="fill-rule:evenodd;stroke:#c00000;stroke-width:3;stroke-linecap:butt;stroke-linejoin:round" />
    <path
       d="m 238.02519,599.1953 -3.36548,-3.38202 3.35103,9.27753 3.39645,-9.26099 z"
       id="path111"
       inkscape:connector-curvature="0"
       style="fill:#c00000;fill-rule:evenodd;stroke:#c00000;stroke-width:3;stroke-linecap:butt" />
    <path
       d="m 245.55989,594.35675 107.06889,0 0,32.31256 -107.06889,0 z"
       id="path113"
       inkscape:connector-curvature="0"
       style="fill:#000000;fill-opacity:0;fill-rule:nonzero" />
    <path
       d="m 264.46616,608.4486 -0.28125,0.96875 -1.54688,0 q 0.17188,0.5 0.17188,0.9375 0,1.23438 -1.03125,2.1875 -1.04688,0.95313 -2.875,1.04688 -0.98438,0.29687 -1.48438,0.71875 -0.17187,0.14062 -0.17187,0.29687 0,0.1875 0.15625,0.34375 0.17187,0.15625 0.84375,0.3125 l 1.8125,0.40625 q 1.48437,0.35938 1.96875,0.84375 0.46875,0.48438 0.46875,1.125 0,0.76563 -0.5625,1.39063 -0.5625,0.64062 -1.64063,0.98437 -1.07812,0.35938 -2.39062,0.35938 -1.14063,0 -2.09377,-0.28125 -0.9375,-0.26563 -1.34375,-0.73438 -0.42187,-0.45312 -0.42187,-0.9375 0,-0.40625 0.26562,-0.84375 0.26563,-0.42187 0.67188,-0.70312 0.25,-0.17188 1.42189,-0.82813 -0.43752,-0.34375 -0.43752,-0.73437 0,-0.375 0.37502,-0.79688 0.375,-0.42187 1.59375,-0.92187 -1.01563,-0.1875 -1.625,-0.84375 -0.59377,-0.65625 -0.59377,-1.46875 0,-1.3125 1.15627,-2.34375 1.15625,-1.04688 3.07813,-1.04688 0.70312,0 1.14062,0.14063 0.45313,0.125 0.85938,0.42187 l 2.51562,0 z m -3.21875,1.46875 q 0,-0.75 -0.42188,-1.17187 -0.40625,-0.42188 -1.07812,-0.42188 -1.04688,0 -1.73438,1.04688 -0.67187,1.04687 -0.67187,2.1875 0,0.71875 0.42187,1.17187 0.4375,0.45313 1.0625,0.45313 0.5,0 0.95313,-0.26563 0.45312,-0.26562 0.76562,-0.73437 0.32813,-0.48438 0.51563,-1.21875 0.1875,-0.73438 0.1875,-1.04688 z m -4.45313,6.35938 q -0.75,0.34375 -1.14064,0.875 -0.375,0.54687 -0.375,1.0625 0,0.60937 0.54688,1.01562 0.79689,0.57813 2.34376,0.57813 1.32813,0 2.26563,-0.45313 0.9375,-0.45312 0.9375,-1.17187 0,-0.35938 -0.34375,-0.6875 -0.34375,-0.3125 -1.34375,-0.51563 -0.54688,-0.125 -2.89063,-0.70312 z m 8.95313,-8.1875 10.01562,0 0,0.75 -10.01562,0 0,-0.75 z m 0,3.01562 10.01562,0 0,0.76563 -10.01562,0 0,-0.76563 z"
       id="path115"
       inkscape:connector-curvature="0"
       style="fill:#000000;fill-rule:nonzero" />
    <path
       d="m 277.47736,616.54236 0,-0.34375 q 1.20312,-0.0312 2.23437,-0.5625 1.04688,-0.54687 2.01563,-1.89062 0.96875,-1.35938 1.35937,-2.98438 -1.45312,0.9375 -2.64062,0.9375 -1.32813,0 -2.28125,-1.03125 -0.9375,-1.03125 -0.9375,-2.71875 0,-1.65625 0.95312,-2.9375 1.14063,-1.57812 2.96875,-1.57812 1.54688,0 2.65625,1.28125 1.35938,1.59375 1.35938,3.92187 0,2.09375 -1.03125,3.90625 -1.03125,1.8125 -2.875,3.01563 -1.48438,0.98437 -3.25,0.98437 l -0.53125,0 z m 5.75,-6.46875 q 0.17187,-1.20312 0.17187,-1.9375 0,-0.89062 -0.3125,-1.9375 -0.29687,-1.04687 -0.85937,-1.59375 -0.5625,-0.5625 -1.28125,-0.5625 -0.82813,0 -1.45313,0.75 -0.60937,0.73438 -0.60937,2.20313 0,1.95312 0.82812,3.0625 0.59375,0.79687 1.48438,0.79687 0.42187,0 1,-0.20312 0.59375,-0.20313 1.03125,-0.57813 z m 4.95312,4.40625 q 0.4375,0 0.73438,0.29688 0.29687,0.29687 0.29687,0.73437 0,0.42188 -0.3125,0.73438 -0.29687,0.29687 -0.71875,0.29687 -0.42187,0 -0.73437,-0.29687 -0.29688,-0.3125 -0.29688,-0.73438 0,-0.4375 0.29688,-0.73437 0.3125,-0.29688 0.73437,-0.29688 z m 5.92969,-4.54687 q -1.48437,-1.21875 -1.92187,-1.95313 -0.42188,-0.75 -0.42188,-1.54687 0,-1.21875 0.9375,-2.10938 0.95313,-0.89062 2.51563,-0.89062 1.51562,0 2.4375,0.82812 0.9375,0.82813 0.9375,1.89063 0,0.70312 -0.5,1.4375 -0.5,0.73437 -2.09375,1.71875 1.64062,1.26562 2.17187,1.98437 0.70313,0.95313 0.70313,2 0,1.32813 -1.01563,2.26563 -1,0.9375 -2.65625,0.9375 -1.78125,0 -2.78125,-1.125 -0.79687,-0.89063 -0.79687,-1.95313 0,-0.84375 0.54687,-1.65625 0.5625,-0.82812 1.9375,-1.82812 z m 1.46875,-0.98438 q 1.10938,-1 1.40625,-1.57812 0.29688,-0.57813 0.29688,-1.3125 0,-0.98438 -0.54688,-1.53125 -0.54687,-0.54688 -1.5,-0.54688 -0.9375,0 -1.53125,0.54688 -0.59375,0.54687 -0.59375,1.28125 0,0.48437 0.23438,0.96875 0.25,0.46875 0.70312,0.90625 l 1.53125,1.26562 z m -1.03125,1.34375 q -0.76562,0.65625 -1.14062,1.42188 -0.375,0.76562 -0.375,1.65625 0,1.1875 0.65625,1.90625 0.65625,0.71875 1.67187,0.71875 1,0 1.59375,-0.5625 0.60938,-0.5625 0.60938,-1.375 0,-0.67188 -0.34375,-1.20313 -0.65625,-0.96875 -2.67188,-2.5625 z m 7.48438,-5.35937 3.04687,-1.5 0.3125,0 0,10.625 q 0,1.0625 0.0781,1.32812 0.0937,0.25 0.375,0.39063 0.28125,0.14062 1.14062,0.15625 l 0,0.34375 -4.73437,0 0,-0.34375 q 0.89062,-0.0156 1.14062,-0.14063 0.26563,-0.14062 0.35938,-0.35937 0.10937,-0.23438 0.10937,-1.375 l 0,-6.79688 q 0,-1.35937 -0.0937,-1.75 -0.0625,-0.29687 -0.23437,-0.4375 -0.17188,-0.14062 -0.40625,-0.14062 -0.34375,0 -0.96875,0.28125 l -0.125,-0.28125 z"
       id="path117"
       inkscape:connector-curvature="0"
       style="fill:#000000;fill-rule:nonzero" />
    <path
       d="m 313.2508,607.8861 -1.21875,4.17188 q 0.8125,-1.46875 1.375,-2.20313 0.89063,-1.15625 1.71875,-1.67187 0.5,-0.29688 1.03125,-0.29688 0.46875,0 0.76563,0.29688 0.3125,0.29687 0.3125,0.75 0,0.45312 -0.21875,1.1875 l -0.65625,2.35937 q 1.51562,-2.82812 2.875,-3.96875 0.75,-0.625 1.48437,-0.625 0.42188,0 0.6875,0.29688 0.28125,0.28125 0.28125,0.89062 0,0.54688 -0.17187,1.14063 l -1.01563,3.60937 q -0.32812,1.1875 -0.32812,1.3125 0,0.125 0.0781,0.21875 0.0469,0.0625 0.14063,0.0625 0.0937,0 0.32812,-0.17187 0.53125,-0.40625 1,-1.07813 l 0.29688,0.20313 q -0.23438,0.35937 -0.82813,1.01562 -0.57812,0.65625 -1,0.89063 -0.40625,0.21875 -0.76562,0.21875 -0.32813,0 -0.54688,-0.21875 -0.21875,-0.21875 -0.21875,-0.54688 0,-0.45312 0.39063,-1.79687 l 0.84375,-2.96875 q 0.28125,-1.03125 0.29687,-1.14063 0.0312,-0.1875 0.0312,-0.34375 0,-0.23437 -0.0937,-0.35937 -0.125,-0.14063 -0.25,-0.14063 -0.39062,0 -0.82812,0.40625 -1.28125,1.17188 -2.39063,3.29688 -0.73437,1.40625 -1.375,3.59375 l -1.40625,0 1.59375,-5.60938 q 0.25,-0.90625 0.25,-1.21875 0,-0.25 -0.10937,-0.35937 -0.0937,-0.125 -0.23438,-0.125 -0.3125,0 -0.65625,0.21875 -0.5625,0.35937 -1.4375,1.54687 -0.875,1.1875 -1.35937,2.26563 -0.23438,0.51562 -1.09375,3.28125 l -1.375,0 1.71875,-6.01563 0.21875,-0.78125 q 0.0625,-0.17187 0.0625,-0.25 0,-0.20312 -0.1875,-0.35937 -0.1875,-0.17188 -0.46875,-0.17188 -0.125,0 -0.67188,0.10938 l -0.0781,-0.34375 3.20312,-0.57813 z m 16.59793,-4.79687 -7.07812,13.46875 -0.8125,0 7.10937,-13.46875 0.78125,0 z m 4.82394,4.79687 -0.5625,2.84375 -0.34375,0 q -0.0469,-1.25 -0.53125,-1.8125 -0.48437,-0.5625 -1.1875,-0.5625 -0.57812,0 -0.92187,0.3125 -0.34375,0.3125 -0.34375,0.76563 0,0.29687 0.14062,0.57812 0.14063,0.28125 0.59375,0.78125 1.20313,1.3125 1.54688,1.98438 0.35937,0.67187 0.35937,1.26562 0,0.96875 -0.8125,1.71875 -0.79687,0.73438 -2.01562,0.73438 -0.67188,0 -1.54688,-0.3125 -0.29687,-0.10938 -0.46875,-0.10938 -0.42187,0 -0.625,0.42188 l -0.34375,0 0.5625,-3 0.34375,0 q 0.0469,1.40625 0.57813,2 0.53125,0.57812 1.45312,0.57812 0.70313,0 1.10938,-0.39062 0.42187,-0.40625 0.42187,-0.96875 0,-0.375 -0.15625,-0.6875 -0.25,-0.5625 -1.07812,-1.54688 -0.82813,-0.98437 -1.07813,-1.46875 -0.23437,-0.5 -0.23437,-0.98437 0,-0.90625 0.65625,-1.51563 0.65625,-0.625 1.6875,-0.625 0.29687,0 0.53125,0.0469 0.14062,0.0156 0.60937,0.20312 0.48438,0.1875 0.64063,0.1875 0.39062,0 0.67187,-0.4375 l 0.34375,0 z"
       id="path119"
       inkscape:connector-curvature="0"
       style="fill:#000000;fill-rule:nonzero" />
    <path
       d="m 339.18292,609.27673 -3.95312,0 0,-0.21875 q 3.03125,-2.64062 4,-4.15625 0.45312,-0.6875 0.45312,-1.46875 0,-0.60937 -0.375,-0.98437 -0.375,-0.39063 -0.98437,-0.39063 -0.8125,0 -1.35938,0.79688 l -0.20312,-0.0937 q 0.29687,-0.75 0.875,-1.17188 0.57812,-0.42187 1.25,-0.42187 0.75,0 1.26562,0.51562 0.51563,0.51563 0.51563,1.26563 0,0.51562 -0.1875,0.95312 -0.28125,0.6875 -1.03125,1.53125 -1.14063,1.29688 -3.0625,3 l 1.98437,0 q 0.48438,0 0.79688,-0.20312 0.3125,-0.20313 0.45312,-0.53125 l 0.23438,0 -0.67188,1.57812 z"
       id="path121"
       inkscape:connector-curvature="0"
       style="fill:#000000;fill-rule:nonzero" />
    <path
       d="m 567.59406,535.96375 128.2544,-6.22693"
       id="path123"
       inkscape:connector-curvature="0"
       style="fill:#000000;fill-opacity:0;fill-rule:nonzero" />
    <path
       d="m 567.59406,535.9637 124.8313,-6.06067"
       id="path125"
       inkscape:connector-curvature="0"
       style="fill-rule:evenodd;stroke:#002060;stroke-width:1;stroke-linecap:butt;stroke-linejoin:round" />
    <path
       d="m 692.42535,529.903 -1.06873,1.1778 3.03162,-1.27308 -3.14069,-0.97345 z"
       id="path127"
       inkscape:connector-curvature="0"
       style="fill:#002060;fill-rule:evenodd;stroke:#002060;stroke-width:1;stroke-linecap:butt" />
    <path
       d="m 567.59406,535.96375 83.06091,89.47754"
       id="path129"
       inkscape:connector-curvature="0"
       style="fill:#000000;fill-opacity:0;fill-rule:nonzero" />
    <path
       d="m 567.59406,535.9637 80.72931,86.96588"
       id="path131"
       inkscape:connector-curvature="0"
       style="fill-rule:evenodd;stroke:#002060;stroke-width:1;stroke-linecap:butt;stroke-linejoin:round" />
    <path
       d="m 648.32336,622.92957 -1.58929,-0.0591 2.92627,1.49939 -1.2779,-3.0296 z"
       id="path133"
       inkscape:connector-curvature="0"
       style="fill:#002060;fill-rule:evenodd;stroke:#002060;stroke-width:1;stroke-linecap:butt" />
    <path
       d="M 567.3721,536.0433 622.40066,419.90191"
       id="path135"
       inkscape:connector-curvature="0"
       style="fill:#000000;fill-opacity:0;fill-rule:nonzero" />
    <path
       d="M 567.3721,536.0433 620.93326,422.99896"
       id="path137"
       inkscape:connector-curvature="0"
       style="fill-rule:evenodd;stroke:#002060;stroke-width:1;stroke-linecap:butt;stroke-linejoin:round" />
    <path
       d="m 620.9332,422.99893 0.53479,1.4978 0.30664,-3.27371 -2.33923,2.31067 z"
       id="path139"
       inkscape:connector-curvature="0"
       style="fill:#002060;fill-rule:evenodd;stroke:#002060;stroke-width:1;stroke-linecap:butt" />
    <path
       d="m 622.7671,420.47803 28.81195,0 0,38.77502 -28.81195,0 z"
       id="path141"
       inkscape:connector-curvature="0"
       style="fill:#000000;fill-opacity:0;fill-rule:nonzero" />
    <path
       d="m 633.7827,437.1899 7.4375,0 0,0.29688 -8.10938,8.4375 3.4375,0 q 1.21875,0 1.54688,-0.0937 0.32812,-0.0937 0.59375,-0.39063 0.28125,-0.3125 0.625,-1.10937 l 0.4375,0 -1.01563,3.1875 -7.64062,0 0,-0.34375 8.10937,-8.4375 -3.375,0 q -1.0625,0 -1.28125,0.0625 -0.32812,0.0625 -0.65625,0.375 -0.3125,0.29687 -0.65625,0.98437 l -0.45312,0 1,-2.96875 z"
       id="path143"
       inkscape:connector-curvature="0"
       style="fill:#000000;fill-rule:nonzero" />
    <path
       d="m 677.59766,498.05377 30.12201,-1.47913 1.90173,38.72834 -30.12201,1.47912 z"
       id="path145"
       inkscape:connector-curvature="0"
       style="fill:#000000;fill-opacity:0;fill-rule:nonzero" />
    <path
       d="m 691.2162,513.83545 q 0.43945,0.66675 0.60907,1.25287 0.18439,0.56976 0.42554,2.29443 l 0.79779,5.7334 q 0.66089,-0.87726 1.91333,-2.76904 0.59619,-0.92102 1.47308,-2.49713 0.51581,-0.96399 0.63788,-1.3454 0.0532,-0.19037 0.0433,-0.39325 -0.006,-0.12482 -0.088,-0.19904 -0.0819,-0.0742 -0.44617,-0.16583 -0.34942,-0.10797 -0.59808,-0.393 -0.23303,-0.28577 -0.2522,-0.67597 -0.023,-0.46814 0.24335,-0.7785 0.26636,-0.31031 0.68768,-0.331 0.51502,-0.0253 0.89545,0.39411 0.3952,0.40295 0.43201,1.15204 0.0452,0.92077 -0.53638,2.13824 -0.56604,1.21674 -2.25525,3.77142 -1.67444,2.53827 -4.10614,5.58307 -1.6654,2.08423 -2.49847,2.64136 -0.83228,0.57275 -1.44092,0.60266 -0.35895,0.0176 -0.63806,-0.25024 -0.29468,-0.26715 -0.31232,-0.6261 -0.0222,-0.45258 0.34955,-0.84625 0.35614,-0.39295 0.79315,-0.41443 0.23407,-0.0115 0.39551,0.0901 0.096,0.0422 0.21899,0.31781 0.12299,0.27551 0.22125,0.36456 0.0647,0.0438 0.14277,0.0399 0.078,-0.004 0.24432,-0.12152 0.61993,-0.4372 1.4361,-1.33765 1.06695,-1.21002 1.57794,-1.95477 l -1.02027,-7.39637 q -0.26208,-1.83307 -0.60894,-2.20715 -0.34766,-0.38965 -1.11237,-0.35211 -0.24969,0.0123 -0.88574,0.1217 l -0.11511,-0.43237 3.3764,-1.01056 z"
       id="path147"
       inkscape:connector-curvature="0"
       style="fill:#000000;fill-rule:nonzero" />
    <path
       d="m 646.62915,582.5514 30.15832,0 0,38.77496 -30.15832,0 z"
       id="path149"
       inkscape:connector-curvature="0"
       style="fill:#000000;fill-opacity:0;fill-rule:nonzero" />
    <path
       d="m 659.7854,598.982 q 0.57812,0.60937 0.875,1.21875 0.20312,0.42187 0.6875,2.21875 l 1.03125,-1.54688 q 0.40625,-0.5625 0.98437,-1.0625 0.59375,-0.51562 1.04688,-0.70312 0.28125,-0.125 0.625,-0.125 0.5,0 0.79687,0.28125 0.29688,0.26562 0.29688,0.64062 0,0.45313 -0.17188,0.60938 -0.32812,0.29687 -0.75,0.29687 -0.25,0 -0.53125,-0.10937 -0.54687,-0.1875 -0.73437,-0.1875 -0.28125,0 -0.67188,0.32812 -0.71875,0.60938 -1.73437,2.35938 l 0.96875,4.03125 q 0.21875,0.92187 0.35937,1.10937 0.15625,0.1875 0.3125,0.1875 0.25,0 0.57813,-0.28125 0.64062,-0.53125 1.09375,-1.40625 l 0.42187,0.21875 q -0.75,1.375 -1.875,2.29688 -0.65625,0.51562 -1.09375,0.51562 -0.65625,0 -1.04687,-0.73437 -0.25,-0.46875 -1.01563,-3.9375 -1.82812,3.17187 -2.9375,4.07812 -0.70312,0.59375 -1.375,0.59375 -0.46875,0 -0.85937,-0.34375 -0.28125,-0.25 -0.28125,-0.6875 0,-0.39062 0.26562,-0.64062 0.25,-0.26563 0.625,-0.26563 0.375,0 0.79688,0.375 0.3125,0.26563 0.46875,0.26563 0.14062,0 0.35937,-0.1875 0.5625,-0.4375 1.5,-1.90625 0.95313,-1.48438 1.25,-2.14063 -0.73437,-2.84375 -0.78125,-3.01562 -0.28125,-0.76563 -0.71875,-1.07813 -0.42187,-0.3125 -1.26562,-0.3125 -0.26563,0 -0.625,0.0156 l 0,-0.42188 3.125,-0.54687 z"
       id="path151"
       inkscape:connector-curvature="0"
       style="fill:#000000;fill-rule:nonzero" />
    <path
       d="m 570.88544,533.87756 -0.16669,68.03906"
       id="path153"
       inkscape:connector-curvature="0"
       style="fill:#000000;fill-opacity:0;fill-rule:nonzero" />
    <path
       d="m 570.88544,533.87756 -0.14148,57.75787"
       id="path155"
       inkscape:connector-curvature="0"
       style="fill-rule:evenodd;stroke:#c00000;stroke-width:3;stroke-linecap:butt;stroke-linejoin:round" />
    <path
       d="m 570.74396,591.6354 -3.36548,-3.38196 3.35101,9.27753 3.39649,-9.26105 z"
       id="path157"
       inkscape:connector-curvature="0"
       style="fill:#c00000;fill-rule:evenodd;stroke:#c00000;stroke-width:3;stroke-linecap:butt" />
    <path
       d="m 495.11978,601.9166 107.06888,0 0,32.31256 -107.06888,0 z"
       id="path159"
       inkscape:connector-curvature="0"
       style="fill:#000000;fill-opacity:0;fill-rule:nonzero" />
    <path
       d="m 514.02606,616.0085 -0.28125,0.96875 -1.54687,0 q 0.17187,0.5 0.17187,0.9375 0,1.23438 -1.03128,2.1875 -1.04688,0.95313 -2.875,1.04688 -0.98438,0.29687 -1.48438,0.71875 -0.17187,0.14062 -0.17187,0.29687 0,0.1875 0.15625,0.34375 0.17187,0.15625 0.84375,0.3125 l 1.8125,0.40625 q 1.48437,0.35938 1.96875,0.84375 0.46878,0.48438 0.46878,1.125 0,0.76563 -0.56253,1.39063 -0.5625,0.64062 -1.64063,0.98437 -1.07812,0.35938 -2.39062,0.35938 -1.14063,0 -2.09375,-0.28125 -0.9375,-0.26563 -1.34375,-0.73438 -0.42188,-0.45312 -0.42188,-0.9375 0,-0.40625 0.26563,-0.84375 0.26562,-0.42187 0.67187,-0.70312 0.25,-0.17188 1.42188,-0.82813 -0.4375,-0.34375 -0.4375,-0.73437 0,-0.375 0.375,-0.79688 0.375,-0.42187 1.59375,-0.92187 -1.01563,-0.1875 -1.625,-0.84375 -0.59375,-0.65625 -0.59375,-1.46875 0,-1.3125 1.15625,-2.34375 1.15625,-1.04688 3.07812,-1.04688 0.70313,0 1.14063,0.14063 0.45312,0.125 0.85937,0.42187 l 2.51566,0 z m -3.21878,1.46875 q 0,-0.75 -0.42188,-1.17187 -0.40625,-0.42188 -1.07812,-0.42188 -1.04688,0 -1.73438,1.04688 -0.67187,1.04687 -0.67187,2.1875 0,0.71875 0.42187,1.17187 0.4375,0.45313 1.0625,0.45313 0.5,0 0.95313,-0.26563 0.45312,-0.26562 0.76562,-0.73437 0.32813,-0.48438 0.51563,-1.21875 0.1875,-0.73438 0.1875,-1.04688 z m -4.45313,6.35938 q -0.75,0.34375 -1.14062,0.875 -0.375,0.54687 -0.375,1.0625 0,0.60937 0.54687,1.01562 0.79688,0.57813 2.34375,0.57813 1.32813,0 2.26563,-0.45313 0.9375,-0.45312 0.9375,-1.17187 0,-0.35938 -0.34375,-0.6875 -0.34375,-0.3125 -1.34375,-0.51563 -0.54688,-0.125 -2.89063,-0.70312 z m 8.95316,-8.1875 10.01563,0 0,0.75 -10.01563,0 0,-0.75 z m 0,3.01562 10.01563,0 0,0.76563 -10.01563,0 0,-0.76563 z"
       id="path161"
       inkscape:connector-curvature="0"
       style="fill:#000000;fill-rule:nonzero" />
    <path
       d="m 527.03723,624.10223 0,-0.34375 q 1.20313,-0.0312 2.23438,-0.5625 1.04687,-0.54688 2.01562,-1.89063 0.96875,-1.35937 1.35938,-2.98437 -1.45313,0.9375 -2.64063,0.9375 -1.32812,0 -2.28125,-1.03125 -0.9375,-1.03125 -0.9375,-2.71875 0,-1.65625 0.95313,-2.9375 1.14062,-1.57813 2.96875,-1.57813 1.54687,0 2.65625,1.28125 1.35937,1.59375 1.35937,3.92188 0,2.09375 -1.03125,3.90625 -1.03125,1.8125 -2.875,3.01562 -1.48437,0.98438 -3.25,0.98438 l -0.53125,0 z m 5.75,-6.46875 q 0.17188,-1.20313 0.17188,-1.9375 0,-0.89063 -0.3125,-1.9375 -0.29688,-1.04688 -0.85938,-1.59375 -0.5625,-0.5625 -1.28125,-0.5625 -0.82812,0 -1.45312,0.75 -0.60938,0.73437 -0.60938,2.20312 0,1.95313 0.82813,3.0625 0.59375,0.79688 1.48437,0.79688 0.42188,0 1,-0.20313 0.59375,-0.20312 1.03125,-0.57812 z m 4.95313,4.40625 q 0.4375,0 0.73437,0.29687 0.29688,0.29688 0.29688,0.73438 0,0.42187 -0.3125,0.73437 -0.29688,0.29688 -0.71875,0.29688 -0.42188,0 -0.73438,-0.29688 -0.29687,-0.3125 -0.29687,-0.73437 0,-0.4375 0.29687,-0.73438 0.3125,-0.29687 0.73438,-0.29687 z m 5.92968,-4.54688 q -1.48437,-1.21875 -1.92187,-1.95312 -0.42188,-0.75 -0.42188,-1.54688 0,-1.21875 0.9375,-2.10937 0.95313,-0.89063 2.51563,-0.89063 1.51562,0 2.4375,0.82813 0.9375,0.82812 0.9375,1.89062 0,0.70313 -0.5,1.4375 -0.5,0.73438 -2.09375,1.71875 1.64062,1.26563 2.17187,1.98438 0.70313,0.95312 0.70313,2 0,1.32812 -1.01563,2.26562 -1,0.9375 -2.65625,0.9375 -1.78125,0 -2.78125,-1.125 -0.79687,-0.89062 -0.79687,-1.95312 0,-0.84375 0.54687,-1.65625 0.5625,-0.82813 1.9375,-1.82813 z m 1.46875,-0.98437 q 1.10938,-1 1.40625,-1.57813 0.29688,-0.57812 0.29688,-1.3125 0,-0.98437 -0.54688,-1.53125 -0.54687,-0.54687 -1.5,-0.54687 -0.9375,0 -1.53125,0.54687 -0.59375,0.54688 -0.59375,1.28125 0,0.48438 0.23438,0.96875 0.25,0.46875 0.70312,0.90625 l 1.53125,1.26563 z m -1.03125,1.34375 q -0.76562,0.65625 -1.14062,1.42187 -0.375,0.76563 -0.375,1.65625 0,1.1875 0.65625,1.90625 0.65625,0.71875 1.67187,0.71875 1,0 1.59375,-0.5625 0.60938,-0.5625 0.60938,-1.375 0,-0.67187 -0.34375,-1.20312 -0.65625,-0.96875 -2.67188,-2.5625 z m 7.48438,-5.35938 3.04687,-1.5 0.3125,0 0,10.625 q 0,1.0625 0.0781,1.32813 0.0937,0.25 0.375,0.39062 0.28125,0.14063 1.14062,0.15625 l 0,0.34375 -4.73437,0 0,-0.34375 q 0.89062,-0.0156 1.14062,-0.14062 0.26563,-0.14063 0.35938,-0.35938 0.10937,-0.23437 0.10937,-1.375 l 0,-6.79687 q 0,-1.35938 -0.0937,-1.75 -0.0625,-0.29688 -0.23437,-0.4375 -0.17188,-0.14063 -0.40625,-0.14063 -0.34375,0 -0.96875,0.28125 l -0.125,-0.28125 z"
       id="path163"
       inkscape:connector-curvature="0"
       style="fill:#000000;fill-rule:nonzero" />
    <path
       d="m 562.81067,615.446 -1.21875,4.17188 q 0.8125,-1.46875 1.375,-2.20313 0.89062,-1.15625 1.71875,-1.67187 0.5,-0.29688 1.03125,-0.29688 0.46875,0 0.76562,0.29688 0.3125,0.29687 0.3125,0.75 0,0.45312 -0.21875,1.1875 l -0.65625,2.35937 q 1.51563,-2.82812 2.875,-3.96875 0.75,-0.625 1.48438,-0.625 0.42187,0 0.6875,0.29688 0.28125,0.28125 0.28125,0.89062 0,0.54688 -0.17188,1.14063 l -1.01562,3.60937 q -0.32813,1.1875 -0.32813,1.3125 0,0.125 0.0781,0.21875 0.0469,0.0625 0.14062,0.0625 0.0937,0 0.32813,-0.17187 0.53125,-0.40625 1,-1.07813 l 0.29687,0.20313 q -0.23437,0.35937 -0.82812,1.01562 -0.57813,0.65625 -1,0.89063 -0.40625,0.21875 -0.76563,0.21875 -0.32812,0 -0.54687,-0.21875 -0.21875,-0.21875 -0.21875,-0.54688 0,-0.45312 0.39062,-1.79687 l 0.84375,-2.96875 q 0.28125,-1.03125 0.29688,-1.14063 0.0312,-0.1875 0.0312,-0.34375 0,-0.23437 -0.0937,-0.35937 -0.125,-0.14063 -0.25,-0.14063 -0.39063,0 -0.82813,0.40625 -1.28125,1.17188 -2.39062,3.29688 -0.73438,1.40625 -1.375,3.59375 l -1.40625,0 1.59375,-5.60938 q 0.25,-0.90625 0.25,-1.21875 0,-0.25 -0.10938,-0.35937 -0.0937,-0.125 -0.23437,-0.125 -0.3125,0 -0.65625,0.21875 -0.5625,0.35937 -1.4375,1.54687 -0.875,1.1875 -1.35938,2.26563 -0.23437,0.51562 -1.09375,3.28125 l -1.375,0 1.71875,-6.01563 0.21875,-0.78125 q 0.0625,-0.17187 0.0625,-0.25 0,-0.20312 -0.1875,-0.35937 -0.1875,-0.17188 -0.46875,-0.17188 -0.125,0 -0.67187,0.10938 l -0.0781,-0.34375 3.20313,-0.57813 z m 16.59796,-4.79687 -7.07812,13.46875 -0.8125,0 7.10937,-13.46875 0.78125,0 z m 4.82391,4.79687 -0.5625,2.84375 -0.34375,0 q -0.0469,-1.25 -0.53125,-1.8125 -0.48437,-0.5625 -1.1875,-0.5625 -0.57812,0 -0.92187,0.3125 -0.34375,0.3125 -0.34375,0.76563 0,0.29687 0.14062,0.57812 0.14063,0.28125 0.59375,0.78125 1.20313,1.3125 1.54688,1.98438 0.35937,0.67187 0.35937,1.26562 0,0.96875 -0.8125,1.71875 -0.79687,0.73438 -2.01562,0.73438 -0.67188,0 -1.54688,-0.3125 -0.29687,-0.10938 -0.46875,-0.10938 -0.42187,0 -0.625,0.42188 l -0.34375,0 0.5625,-3 0.34375,0 q 0.0469,1.40625 0.57813,2 0.53125,0.57812 1.45312,0.57812 0.70313,0 1.10938,-0.39062 0.42187,-0.40625 0.42187,-0.96875 0,-0.375 -0.15625,-0.6875 -0.25,-0.5625 -1.07812,-1.54688 -0.82813,-0.98437 -1.07813,-1.46875 -0.23437,-0.5 -0.23437,-0.98437 0,-0.90625 0.65625,-1.51563 0.65625,-0.625 1.6875,-0.625 0.29687,0 0.53125,0.0469 0.14062,0.0156 0.60937,0.20312 0.48438,0.1875 0.64063,0.1875 0.39062,0 0.67187,-0.4375 l 0.34375,0 z"
       id="path165"
       inkscape:connector-curvature="0"
       style="fill:#000000;fill-rule:nonzero" />
    <path
       d="m 588.7428,616.8366 -3.95313,0 0,-0.21875 q 3.03125,-2.64063 4,-4.15625 0.45313,-0.6875 0.45313,-1.46875 0,-0.60938 -0.375,-0.98438 -0.375,-0.39062 -0.98438,-0.39062 -0.8125,0 -1.35937,0.79687 l -0.20313,-0.0937 q 0.29688,-0.75 0.875,-1.17187 0.57813,-0.42188 1.25,-0.42188 0.75,0 1.26563,0.51563 0.51562,0.51562 0.51562,1.26562 0,0.51563 -0.1875,0.95313 -0.28125,0.6875 -1.03125,1.53125 -1.14062,1.29687 -3.0625,3 l 1.98438,0 q 0.48437,0 0.79687,-0.20313 0.3125,-0.20312 0.45313,-0.53125 l 0.23437,0 -0.67187,1.57813 z"
       id="path167"
       inkscape:connector-curvature="0"
       style="fill:#000000;fill-rule:nonzero" />
    <defs
       id="defs173">
      <filter
         id="shadowFilter-p39.1"
         filterUnits="userSpaceOnUse">
        <feGaussianBlur
           in="SourceAlpha"
           stdDeviation="1.399825"
           result="blur"
           id="feGaussianBlur176" />
        <feComponentTransfer
           in="blur"
           id="feComponentTransfer178"
           style="color-interpolation-filters:sRGB">
          <feFuncR
             type="linear"
             slope="0"
             intercept="0.0"
             id="feFuncR180" />
          <feFuncG
             type="linear"
             slope="0"
             intercept="0.0"
             id="feFuncG182" />
          <feFuncB
             type="linear"
             slope="0"
             intercept="0.0"
             id="feFuncB184" />
          <feFuncA
             type="linear"
             slope="0.3764706"
             intercept="0"
             id="feFuncA186" />
        </feComponentTransfer>
      </filter>
    </defs>
    <g
       id="p39.1">
      <path
         d="m 570.71875,533.87756 22.67969,30.23962"
         id="path189"
         inkscape:connector-curvature="0"
         style="fill:#000000;fill-opacity:0;fill-rule:nonzero" />
      <path
         d="m 570.71875,533.87756 17.19629,22.92853"
         id="path191"
         inkscape:connector-curvature="0"
         style="fill-rule:evenodd;stroke:#9bbb59;stroke-width:2.66666675;stroke-linecap:butt;stroke-linejoin:round" />
      <path
         d="m 587.9151,556.806 -4.19849,-0.59979 7.34278,4.79217 -2.54456,-8.39081 z"
         id="path193"
         inkscape:connector-curvature="0"
         style="fill:#9bbb59;fill-rule:evenodd;stroke:#9bbb59;stroke-width:2.66666675;stroke-linecap:butt" />
    </g>
    <defs
       id="defs199">
      <filter
         id="shadowFilter-p39.2"
         filterUnits="userSpaceOnUse">
        <feGaussianBlur
           in="SourceAlpha"
           stdDeviation="1.399825"
           result="blur"
           id="feGaussianBlur202" />
        <feComponentTransfer
           in="blur"
           id="feComponentTransfer204"
           style="color-interpolation-filters:sRGB">
          <feFuncR
             type="linear"
             slope="0"
             intercept="0.0"
             id="feFuncR206" />
          <feFuncG
             type="linear"
             slope="0"
             intercept="0.0"
             id="feFuncG208" />
          <feFuncB
             type="linear"
             slope="0"
             intercept="0.0"
             id="feFuncB210" />
          <feFuncA
             type="linear"
             slope="0.3764706"
             intercept="0"
             id="feFuncA212" />
        </feComponentTransfer>
      </filter>
    </defs>
    <g
       id="p39.2">
      <path
         d="m 570.71875,533.87756 22.67969,-52.91925"
         id="path215"
         inkscape:connector-curvature="0"
         style="fill:#000000;fill-opacity:0;fill-rule:nonzero" />
      <path
         d="M 570.71875,533.87756 589.79846,489.3583"
         id="path217"
         inkscape:connector-curvature="0"
         style="fill-rule:evenodd;stroke:#9bbb59;stroke-width:2.66666675;stroke-linecap:butt;stroke-linejoin:round" />
      <path
         d="m 589.7984,489.3583 1.57513,3.93774 0.4892,-8.75451 -6.00201,6.39187 z"
         id="path219"
         inkscape:connector-curvature="0"
         style="fill:#9bbb59;fill-rule:evenodd;stroke:#9bbb59;stroke-width:2.66666675;stroke-linecap:butt" />
    </g>
    <defs
       id="defs225">
      <filter
         id="shadowFilter-p39.3"
         filterUnits="userSpaceOnUse">
        <feGaussianBlur
           in="SourceAlpha"
           stdDeviation="1.399825"
           result="blur"
           id="feGaussianBlur228" />
        <feComponentTransfer
           in="blur"
           id="feComponentTransfer230"
           style="color-interpolation-filters:sRGB">
          <feFuncR
             type="linear"
             slope="0"
             intercept="0.0"
             id="feFuncR232" />
          <feFuncG
             type="linear"
             slope="0"
             intercept="0.0"
             id="feFuncG234" />
          <feFuncB
             type="linear"
             slope="0"
             intercept="0.0"
             id="feFuncB236" />
          <feFuncA
             type="linear"
             slope="0.3764706"
             intercept="0"
             id="feFuncA238" />
        </feComponentTransfer>
      </filter>
    </defs>
    <g
       id="p39.3">
      <path
         d="m 570.71875,533.87756 30.23956,0.16675"
         id="path241"
         inkscape:connector-curvature="0"
         style="fill:#000000;fill-opacity:0;fill-rule:nonzero" />
      <path
         d="m 570.71875,533.87756 21.10083,0.11639"
         id="path243"
         inkscape:connector-curvature="0"
         style="fill-rule:evenodd;stroke:#9bbb59;stroke-width:2.66666675;stroke-linecap:butt;stroke-linejoin:round" />
      <path
         d="m 591.8196,533.9939 -3.01538,2.9823 8.2558,-2.95337 -8.22272,-3.04431 z"
         id="path245"
         inkscape:connector-curvature="0"
         style="fill:#9bbb59;fill-rule:evenodd;stroke:#9bbb59;stroke-width:2.66666675;stroke-linecap:butt" />
    </g>
    <path
       d="m 589.2722,465.83853 34.36578,0 0,32.31256 -34.36578,0 z"
       id="path247"
       inkscape:connector-curvature="0"
       style="fill:#000000;fill-opacity:0;fill-rule:nonzero" />
    <path
       d="m 608.17847,479.93042 -0.28125,0.96875 -1.54688,0 q 0.17188,0.5 0.17188,0.9375 0,1.23438 -1.03125,2.1875 -1.04688,0.95313 -2.875,1.04688 -0.98438,0.29687 -1.48438,0.71875 -0.17187,0.14062 -0.17187,0.29687 0,0.1875 0.15625,0.34375 0.17187,0.15625 0.84375,0.3125 l 1.8125,0.40625 q 1.48437,0.35938 1.96875,0.84375 0.46875,0.48438 0.46875,1.125 0,0.76563 -0.5625,1.39063 -0.5625,0.64062 -1.64063,0.98437 -1.07812,0.35938 -2.39062,0.35938 -1.14063,0 -2.09375,-0.28125 -0.9375,-0.26563 -1.34375,-0.73438 -0.42188,-0.45312 -0.42188,-0.9375 0,-0.40625 0.26563,-0.84375 0.26562,-0.42187 0.67187,-0.70312 0.25,-0.17188 1.42188,-0.82813 -0.4375,-0.34375 -0.4375,-0.73437 0,-0.375 0.375,-0.79688 0.375,-0.42187 1.59375,-0.92187 -1.01563,-0.1875 -1.625,-0.84375 -0.59375,-0.65625 -0.59375,-1.46875 0,-1.3125 1.15625,-2.34375 1.15625,-1.04688 3.07812,-1.04688 0.70313,0 1.14063,0.14063 0.45312,0.125 0.85937,0.42187 l 2.51563,0 z m -3.21875,1.46875 q 0,-0.75 -0.42188,-1.17187 -0.40625,-0.42188 -1.07812,-0.42188 -1.04688,0 -1.73438,1.04688 -0.67187,1.04687 -0.67187,2.1875 0,0.71875 0.42187,1.17187 0.4375,0.45313 1.0625,0.45313 0.5,0 0.95313,-0.26563 0.45312,-0.26562 0.76562,-0.73437 0.32813,-0.48438 0.51563,-1.21875 0.1875,-0.73438 0.1875,-1.04688 z m -4.45313,6.35938 q -0.75,0.34375 -1.14062,0.875 -0.375,0.54687 -0.375,1.0625 0,0.60937 0.54687,1.01562 0.79688,0.57813 2.34375,0.57813 1.32813,0 2.26563,-0.45313 0.9375,-0.45312 0.9375,-1.17187 0,-0.35938 -0.34375,-0.6875 -0.34375,-0.3125 -1.34375,-0.51563 -0.54688,-0.125 -2.89063,-0.70312 z"
       id="path249"
       inkscape:connector-curvature="0"
       style="fill:#000000;fill-rule:nonzero" />
    <path
       d="m 608.61597,489.6023 3.71875,0 0,0.14063 -4.0625,4.21875 1.71875,0 q 0.60937,0 0.76562,-0.0469 0.17188,-0.0469 0.3125,-0.20312 0.14063,-0.15625 0.3125,-0.54688 l 0.20313,0 -0.5,1.59375 -3.8125,0 0,-0.17187 4.04687,-4.21875 -1.6875,0 q -0.53125,0 -0.64062,0.0312 -0.17188,0.0312 -0.32813,0.1875 -0.15625,0.14062 -0.32812,0.48437 l -0.21875,0 0.5,-1.46875 z"
       id="path251"
       inkscape:connector-curvature="0"
       style="fill:#000000;fill-rule:nonzero" />
    <path
       d="m 593.39844,541.4375 34.36572,0 0,32.31256 -34.36572,0 z"
       id="path253"
       inkscape:connector-curvature="0"
       style="fill:#000000;fill-opacity:0;fill-rule:nonzero" />
    <path
       d="m 612.3047,555.52936 -0.28125,0.96875 -1.54687,0 q 0.17187,0.5 0.17187,0.9375 0,1.23437 -1.03125,2.1875 -1.04687,0.95312 -2.875,1.04687 -0.98437,0.29688 -1.48437,0.71875 -0.17188,0.14063 -0.17188,0.29688 0,0.1875 0.15625,0.34375 0.17188,0.15625 0.84375,0.3125 l 1.8125,0.40625 q 1.48438,0.35937 1.96875,0.84375 0.46875,0.48437 0.46875,1.125 0,0.76562 -0.5625,1.39062 -0.5625,0.64063 -1.64062,0.98438 -1.07813,0.35937 -2.39063,0.35937 -1.14062,0 -2.09375,-0.28125 -0.9375,-0.26562 -1.34375,-0.73437 -0.42187,-0.45313 -0.42187,-0.9375 0,-0.40625 0.26562,-0.84375 0.26563,-0.42188 0.67188,-0.70313 0.25,-0.17187 1.42187,-0.82812 -0.4375,-0.34375 -0.4375,-0.73438 0,-0.375 0.375,-0.79687 0.375,-0.42188 1.59375,-0.92188 -1.01562,-0.1875 -1.625,-0.84375 -0.59375,-0.65625 -0.59375,-1.46875 0,-1.3125 1.15625,-2.34375 1.15625,-1.04687 3.07813,-1.04687 0.70312,0 1.14062,0.14062 0.45313,0.125 0.85938,0.42188 l 2.51562,0 z m -3.21875,1.46875 q 0,-0.75 -0.42187,-1.17188 -0.40625,-0.42187 -1.07813,-0.42187 -1.04687,0 -1.73437,1.04687 -0.67188,1.04688 -0.67188,2.1875 0,0.71875 0.42188,1.17188 0.4375,0.45312 1.0625,0.45312 0.5,0 0.95312,-0.26562 0.45313,-0.26563 0.76563,-0.73438 0.32812,-0.48437 0.51562,-1.21875 0.1875,-0.73437 0.1875,-1.04687 z m -4.45312,6.35937 q -0.75,0.34375 -1.14063,0.875 -0.375,0.54688 -0.375,1.0625 0,0.60938 0.54688,1.01563 0.79687,0.57812 2.34375,0.57812 1.32812,0 2.26562,-0.45312 0.9375,-0.45313 0.9375,-1.17188 0,-0.35937 -0.34375,-0.6875 -0.34375,-0.3125 -1.34375,-0.51562 -0.54687,-0.125 -2.89062,-0.70313 z"
       id="path255"
       inkscape:connector-curvature="0"
       style="fill:#000000;fill-rule:nonzero" />
    <path
       d="m 613.8047,565.0606 q 0.28125,0.29688 0.42188,0.60938 0.10937,0.20312 0.35937,1.09375 l 0.51563,-0.76563 q 0.20312,-0.28125 0.48437,-0.53125 0.29688,-0.26562 0.51563,-0.35937 0.14062,-0.0469 0.3125,-0.0469 0.25,0 0.40625,0.14063 0.15625,0.125 0.15625,0.3125 0,0.21875 -0.0937,0.3125 -0.17188,0.14062 -0.375,0.14062 -0.125,0 -0.26563,-0.0469 -0.28125,-0.0937 -0.375,-0.0937 -0.14062,0 -0.32812,0.15625 -0.35938,0.3125 -0.85938,1.1875 l 0.46875,2.01562 q 0.10938,0.45313 0.1875,0.54688 0.0781,0.0937 0.15625,0.0937 0.125,0 0.28125,-0.14063 0.32813,-0.26562 0.5625,-0.70312 l 0.20313,0.10937 q -0.375,0.6875 -0.9375,1.14063 -0.32813,0.26562 -0.54688,0.26562 -0.32812,0 -0.51562,-0.375 -0.125,-0.21875 -0.51563,-1.96875 -0.92187,1.59375 -1.46875,2.04688 -0.35937,0.29687 -0.6875,0.29687 -0.23437,0 -0.4375,-0.17187 -0.14062,-0.125 -0.14062,-0.34375 0,-0.1875 0.14062,-0.3125 0.125,-0.14063 0.3125,-0.14063 0.1875,0 0.40625,0.1875 0.14063,0.14063 0.23438,0.14063 0.0625,0 0.17187,-0.0937 0.28125,-0.23438 0.75,-0.96875 0.48438,-0.73438 0.625,-1.0625 -0.35937,-1.42188 -0.39062,-1.5 -0.14063,-0.39063 -0.35938,-0.54688 -0.21875,-0.15625 -0.64062,-0.15625 -0.125,0 -0.29688,0.0156 l 0,-0.21875 1.5625,-0.26563 z"
       id="path257"
       inkscape:connector-curvature="0"
       style="fill:#000000;fill-rule:nonzero" />
    <path
       d="m 593.39844,501.56503 34.36572,0 0,32.31253 -34.36572,0 z"
       id="path259"
       inkscape:connector-curvature="0"
       style="fill:#000000;fill-opacity:0;fill-rule:nonzero" />
    <path
       d="m 612.3047,515.6569 -0.28125,0.96875 -1.54687,0 q 0.17187,0.5 0.17187,0.9375 0,1.23437 -1.03125,2.1875 -1.04687,0.95312 -2.875,1.04687 -0.98437,0.29688 -1.48437,0.71875 -0.17188,0.14063 -0.17188,0.29688 0,0.1875 0.15625,0.34375 0.17188,0.15625 0.84375,0.3125 l 1.8125,0.40625 q 1.48438,0.35937 1.96875,0.84375 0.46875,0.48437 0.46875,1.125 0,0.76562 -0.5625,1.39062 -0.5625,0.64063 -1.64062,0.98438 -1.07813,0.35937 -2.39063,0.35937 -1.14062,0 -2.09375,-0.28125 -0.9375,-0.26562 -1.34375,-0.73437 -0.42187,-0.45313 -0.42187,-0.9375 0,-0.40625 0.26562,-0.84375 0.26563,-0.42188 0.67188,-0.70313 0.25,-0.17187 1.42187,-0.82812 -0.4375,-0.34375 -0.4375,-0.73438 0,-0.375 0.375,-0.79687 0.375,-0.42188 1.59375,-0.92188 -1.01562,-0.1875 -1.625,-0.84375 -0.59375,-0.65625 -0.59375,-1.46875 0,-1.3125 1.15625,-2.34375 1.15625,-1.04687 3.07813,-1.04687 0.70312,0 1.14062,0.14062 0.45313,0.125 0.85938,0.42188 l 2.51562,0 z m -3.21875,1.46875 q 0,-0.75 -0.42187,-1.17188 -0.40625,-0.42187 -1.07813,-0.42187 -1.04687,0 -1.73437,1.04687 -0.67188,1.04688 -0.67188,2.1875 0,0.71875 0.42188,1.17188 0.4375,0.45312 1.0625,0.45312 0.5,0 0.95312,-0.26562 0.45313,-0.26563 0.76563,-0.73438 0.32812,-0.48437 0.51562,-1.21875 0.1875,-0.73437 0.1875,-1.04687 z m -4.45312,6.35937 q -0.75,0.34375 -1.14063,0.875 -0.375,0.54688 -0.375,1.0625 0,0.60938 0.54688,1.01563 0.79687,0.57812 2.34375,0.57812 1.32812,0 2.26562,-0.45312 0.9375,-0.45313 0.9375,-1.17188 0,-0.35937 -0.34375,-0.6875 -0.34375,-0.3125 -1.34375,-0.51562 -0.54687,-0.125 -2.89062,-0.70313 z"
       id="path261"
       inkscape:connector-curvature="0"
       style="fill:#000000;fill-rule:nonzero" />
    <path
       d="m 613.6328,525.1882 q 0.20312,0.32813 0.28125,0.625 0.0781,0.29688 0.15625,1.17188 l 0.25,2.875 q 0.35937,-0.42188 1.01562,-1.32813 0.32813,-0.45312 0.79688,-1.21875 0.29687,-0.46875 0.35937,-0.65625 0.0312,-0.0937 0.0312,-0.1875 0,-0.0625 -0.0469,-0.10937 -0.0312,-0.0469 -0.20313,-0.0937 -0.17187,-0.0625 -0.29687,-0.20313 -0.10938,-0.15625 -0.10938,-0.34375 0,-0.25 0.14063,-0.39062 0.14062,-0.14063 0.35937,-0.14063 0.25,0 0.42188,0.21875 0.1875,0.20313 0.1875,0.57813 0,0.46875 -0.3125,1.0625 -0.3125,0.59375 -1.21875,1.82812 -0.90625,1.21875 -2.1875,2.67188 -0.875,1 -1.3125,1.26562 -0.42188,0.26563 -0.73438,0.26563 -0.17187,0 -0.3125,-0.14063 -0.14062,-0.14062 -0.14062,-0.3125 0,-0.23437 0.1875,-0.42187 0.1875,-0.1875 0.42187,-0.1875 0.10938,0 0.1875,0.0469 0.0469,0.0312 0.10938,0.17188 0.0469,0.14062 0.0937,0.1875 0.0312,0.0312 0.0781,0.0312 0.0312,0 0.125,-0.0625 0.3125,-0.20313 0.75,-0.64063 0.5625,-0.5625 0.82813,-0.9375 l -0.32813,-3.70312 q -0.0781,-0.92188 -0.25,-1.125 -0.15625,-0.20313 -0.54687,-0.20313 -0.125,0 -0.4375,0.0312 l -0.0625,-0.20312 1.71875,-0.42188 z"
       id="path263"
       inkscape:connector-curvature="0"
       style="fill:#000000;fill-rule:nonzero" />
  </g>
</svg>
