<?xml version="1.0" encoding="UTF-8" standalone="no"?>
<!-- Created with Inkscape (http://www.inkscape.org/) -->

<svg
   xmlns:dc="http://purl.org/dc/elements/1.1/"
   xmlns:cc="http://creativecommons.org/ns#"
   xmlns:rdf="http://www.w3.org/1999/02/22-rdf-syntax-ns#"
   xmlns:svg="http://www.w3.org/2000/svg"
   xmlns="http://www.w3.org/2000/svg"
   xmlns:sodipodi="http://sodipodi.sourceforge.net/DTD/sodipodi-0.dtd"
   xmlns:inkscape="http://www.inkscape.org/namespaces/inkscape"
   width="210mm"
   height="297mm"
   viewBox="0 0 744.09448819 1052.3622047"
   id="svg3559"
   version="1.1"
   inkscape:version="0.91 r13725"
   sodipodi:docname="mcl_likelihood.svg">
  <defs
     id="defs3561">
    <clipPath
       clipPathUnits="userSpaceOnUse"
       id="clipPath48">
      <path
         d="M 0,0 258,0 258,88 0,88 0,0 Z"
         id="path50"
         inkscape:connector-curvature="0" />
    </clipPath>
  </defs>
  <sodipodi:namedview
     id="base"
     pagecolor="#ffffff"
     bordercolor="#666666"
     borderopacity="1.0"
     inkscape:pageopacity="0.0"
     inkscape:pageshadow="2"
     inkscape:zoom="1.4"
     inkscape:cx="396.59311"
     inkscape:cy="852.42593"
     inkscape:document-units="px"
     inkscape:current-layer="layer1"
     showgrid="false"
     inkscape:window-width="1920"
     inkscape:window-height="1025"
     inkscape:window-x="0"
     inkscape:window-y="867"
     inkscape:window-maximized="1" />
  <metadata
     id="metadata3564">
    <rdf:RDF>
      <cc:Work
         rdf:about="">
        <dc:format>image/svg+xml</dc:format>
        <dc:type
           rdf:resource="http://purl.org/dc/dcmitype/StillImage" />
        <dc:title></dc:title>
      </cc:Work>
    </rdf:RDF>
  </metadata>
  <g
     inkscape:label="Layer 1"
     inkscape:groupmode="layer"
     id="layer1">
    <g
       id="g40"
       transform="matrix(0.96415,0,0,-0.96415,103.4336,118.82922)">
      <g
         id="g42">
        <g
           id="g44">
          <g
             id="g46"
             clip-path="url(#clipPath48)">
            <g
               id="g52"
               transform="scale(0.1,0.1)">
              <path
                 d="m 750.645,128.02 c 0,55.691 -43.645,100.839 -97.477,100.839 -53.836,0 -97.48,-45.148 -97.48,-100.839 0,-55.6919 43.644,-100.8403 97.48,-100.8403 53.832,0 97.477,45.1484 97.477,100.8403"
                 style="fill:#ffffff;fill-opacity:1;fill-rule:evenodd;stroke:none"
                 id="path54"
                 inkscape:connector-curvature="0" />
              <path
                 d="m 750.645,128.02 c 0,55.691 -43.645,100.839 -97.477,100.839 -53.836,0 -97.48,-45.148 -97.48,-100.839 0,-55.6919 43.644,-100.8403 97.48,-100.8403 53.832,0 97.477,45.1484 97.477,100.8403 z"
                 style="fill:none;stroke:#000000;stroke-width:9.56060028;stroke-linecap:butt;stroke-linejoin:miter;stroke-miterlimit:10;stroke-dasharray:none;stroke-opacity:1"
                 id="path56"
                 inkscape:connector-curvature="0" />
              <path
                 d="m 713.672,128.02 c 0,33.414 -27.09,60.503 -60.504,60.503 -33.414,0 -60.504,-27.089 -60.504,-60.503 0,-33.4145 27.09,-60.5044 60.504,-60.5044 33.414,0 60.504,27.0899 60.504,60.5044"
                 style="fill:#ffffff;fill-opacity:1;fill-rule:evenodd;stroke:none"
                 id="path58"
                 inkscape:connector-curvature="0" />
              <path
                 d="m 713.672,128.02 c 0,33.414 -27.09,60.503 -60.504,60.503 -33.414,0 -60.504,-27.089 -60.504,-60.503 0,-33.4145 27.09,-60.5044 60.504,-60.5044 33.414,0 60.504,27.0899 60.504,60.5044 z"
                 style="fill:none;stroke:#000000;stroke-width:9.56060028;stroke-linecap:butt;stroke-linejoin:miter;stroke-miterlimit:10;stroke-dasharray:none;stroke-opacity:1"
                 id="path60"
                 inkscape:connector-curvature="0" />
              <path
                 d="M 592.664,240.031 633,102.219 l 40.336,0 40.336,137.812 -121.008,0"
                 style="fill:#ffffff;fill-opacity:1;fill-rule:evenodd;stroke:none"
                 id="path62"
                 inkscape:connector-curvature="0" />
              <path
                 d="M 592.664,240.031 633,102.219 l 40.336,0 40.336,137.812 -121.008,0"
                 style="fill:none;stroke:#000000;stroke-width:9.56060028;stroke-linecap:butt;stroke-linejoin:miter;stroke-miterlimit:10;stroke-dasharray:none;stroke-opacity:1"
                 id="path64"
                 inkscape:connector-curvature="0" />
              <path
                 d="m 229.645,128.02 c 0,55.691 -43.645,100.839 -97.481,100.839 -53.832,0 -97.4765,-45.148 -97.4765,-100.839 0,-55.6919 43.6445,-100.8403 97.4765,-100.8403 53.836,0 97.481,45.1484 97.481,100.8403"
                 style="fill:#ffffff;fill-opacity:1;fill-rule:evenodd;stroke:none"
                 id="path66"
                 inkscape:connector-curvature="0" />
              <path
                 d="m 229.645,128.02 c 0,55.691 -43.645,100.839 -97.481,100.839 -53.832,0 -97.4765,-45.148 -97.4765,-100.839 0,-55.6919 43.6445,-100.8403 97.4765,-100.8403 53.836,0 97.481,45.1484 97.481,100.8403 z"
                 style="fill:none;stroke:#000000;stroke-width:9.56060028;stroke-linecap:butt;stroke-linejoin:miter;stroke-miterlimit:10;stroke-dasharray:none;stroke-opacity:1"
                 id="path68"
                 inkscape:connector-curvature="0" />
              <path
                 d="m 192.668,128.02 c 0,33.414 -27.09,60.503 -60.504,60.503 -33.414,0 -60.5038,-27.089 -60.5038,-60.503 0,-33.4145 27.0898,-60.5044 60.5038,-60.5044 33.414,0 60.504,27.0899 60.504,60.5044"
                 style="fill:#ffffff;fill-opacity:1;fill-rule:evenodd;stroke:none"
                 id="path70"
                 inkscape:connector-curvature="0" />
              <path
                 d="m 192.668,128.02 c 0,33.414 -27.09,60.503 -60.504,60.503 -33.414,0 -60.5038,-27.089 -60.5038,-60.503 0,-33.4145 27.0898,-60.5044 60.5038,-60.5044 33.414,0 60.504,27.0899 60.504,60.5044 z"
                 style="fill:none;stroke:#000000;stroke-width:9.56060028;stroke-linecap:butt;stroke-linejoin:miter;stroke-miterlimit:10;stroke-dasharray:none;stroke-opacity:1"
                 id="path72"
                 inkscape:connector-curvature="0" />
              <path
                 d="m 68.3008,240.031 40.3362,-137.812 40.336,0 40.336,137.812 -121.0082,0"
                 style="fill:#ffffff;fill-opacity:1;fill-rule:evenodd;stroke:none"
                 id="path74"
                 inkscape:connector-curvature="0" />
              <path
                 d="m 68.3008,240.031 40.3362,-137.812 40.336,0 40.336,137.812 -121.0082,0"
                 style="fill:none;stroke:#000000;stroke-width:9.56060028;stroke-linecap:butt;stroke-linejoin:miter;stroke-miterlimit:10;stroke-dasharray:none;stroke-opacity:1"
                 id="path76"
                 inkscape:connector-curvature="0" />
              <path
                 d="m 27.9648,243.391 726.043,0 0,218.488 -726.043,0 0,-218.488 z"
                 style="fill:#ffffff;fill-opacity:1;fill-rule:evenodd;stroke:none"
                 id="path78"
                 inkscape:connector-curvature="0" />
              <path
                 d="m 27.9648,243.391 726.043,0 0,218.488 -726.043,0 0,-218.488 z"
                 style="fill:none;stroke:#000000;stroke-width:9.56060028;stroke-linecap:butt;stroke-linejoin:miter;stroke-miterlimit:10;stroke-dasharray:none;stroke-opacity:1"
                 id="path80"
                 inkscape:connector-curvature="0" />
              <path
                 d="m 592.664,646.75 80.6719,0 0,60.5039 -80.6719,0 0,-60.5039 z"
                 style="fill:#ffffff;fill-opacity:1;fill-rule:evenodd;stroke:none"
                 id="path82"
                 inkscape:connector-curvature="0" />
              <path
                 d="m 592.664,646.75 80.6719,0 0,60.5039 -80.6719,0 0,-60.5039 z"
                 style="fill:none;stroke:#000000;stroke-width:9.56060028;stroke-linecap:butt;stroke-linejoin:miter;stroke-miterlimit:10;stroke-dasharray:none;stroke-opacity:1"
                 id="path84"
                 inkscape:connector-curvature="0" />
              <path
                 d="m 724.645,755.312 59.293,0 0,96.7227 -59.293,0 0,-96.7227 z"
                 style="fill:#000000;fill-opacity:1;fill-rule:evenodd;stroke:none"
                 id="path86"
                 inkscape:connector-curvature="0" />
              <path
                 d="m 724.645,755.312 59.293,0 0,96.7227 -59.293,0 0,-96.7227 z"
                 style="fill:none;stroke:#000000;stroke-width:9.56060028;stroke-linecap:butt;stroke-linejoin:miter;stroke-miterlimit:10;stroke-dasharray:none;stroke-opacity:1"
                 id="path88"
                 inkscape:connector-curvature="0" />
              <path
                 d="m 554.523,495.062 159.148,0 0,171.855 -159.148,0 0,-171.855 z"
                 style="fill:#ffffff;fill-opacity:1;fill-rule:evenodd;stroke:none"
                 id="path90"
                 inkscape:connector-curvature="0" />
              <path
                 d="m 554.523,495.062 159.148,0 0,171.855 -159.148,0 0,-171.855 z"
                 style="fill:none;stroke:#000000;stroke-width:9.56060028;stroke-linecap:butt;stroke-linejoin:miter;stroke-miterlimit:10;stroke-dasharray:none;stroke-opacity:1"
                 id="path92"
                 inkscape:connector-curvature="0" />
              <path
                 d="m 612.832,707.254 40.3359,0 0,100.84 -40.3359,0 0,-100.84 z"
                 style="fill:#ffffff;fill-opacity:1;fill-rule:evenodd;stroke:none"
                 id="path94"
                 inkscape:connector-curvature="0" />
              <path
                 d="m 612.832,707.254 40.3359,0 0,100.84 -40.3359,0 0,-100.84 z"
                 style="fill:none;stroke:#000000;stroke-width:9.56060028;stroke-linecap:butt;stroke-linejoin:miter;stroke-miterlimit:10;stroke-dasharray:none;stroke-opacity:1"
                 id="path96"
                 inkscape:connector-curvature="0" />
              <path
                 d="m 733.84,707.254 c 0,33.414 -27.09,60.504 -60.504,60.504 -33.414,0 -60.504,-27.09 -60.504,-60.504 0,-33.414 27.09,-60.504 60.504,-60.504 33.414,0 60.504,27.09 60.504,60.504"
                 style="fill:#ffffff;fill-opacity:1;fill-rule:evenodd;stroke:none"
                 id="path98"
                 inkscape:connector-curvature="0" />
              <path
                 d="m 733.84,707.254 c 0,33.414 -27.09,60.504 -60.504,60.504 -33.414,0 -60.504,-27.09 -60.504,-60.504 0,-33.414 27.09,-60.504 60.504,-60.504 33.414,0 60.504,27.09 60.504,60.504 z"
                 style="fill:none;stroke:#000000;stroke-width:9.56060028;stroke-linecap:butt;stroke-linejoin:miter;stroke-miterlimit:10;stroke-dasharray:none;stroke-opacity:1"
                 id="path100"
                 inkscape:connector-curvature="0" />
              <path
                 d="m 633,626.582 80.6719,0 0,201.68 -80.6719,0 0,-201.68 z"
                 style="fill:#ffffff;fill-opacity:1;fill-rule:evenodd;stroke:none"
                 id="path102"
                 inkscape:connector-curvature="0" />
              <path
                 d="m 633,626.582 80.6719,0 0,201.68 -80.6719,0 0,-201.68 z"
                 style="fill:none;stroke:#000000;stroke-width:9.56060028;stroke-linecap:butt;stroke-linejoin:miter;stroke-miterlimit:10;stroke-dasharray:none;stroke-opacity:1"
                 id="path104"
                 inkscape:connector-curvature="0" />
              <path
                 d="m 612.832,773.434 121.008,0 0,60.5039 -121.008,0 0,-60.5039 z"
                 style="fill:#000000;fill-opacity:1;fill-rule:evenodd;stroke:none"
                 id="path106"
                 inkscape:connector-curvature="0" />
              <path
                 d="m 612.832,773.434 121.008,0 0,60.5039 -121.008,0 0,-60.5039 z"
                 style="fill:none;stroke:#000000;stroke-width:9.56060028;stroke-linecap:butt;stroke-linejoin:miter;stroke-miterlimit:10;stroke-dasharray:none;stroke-opacity:1"
                 id="path108"
                 inkscape:connector-curvature="0" />
              <path
                 d="m 501.672,463.457 236.297,0 0,30.168 -236.297,0 0,-30.168 z"
                 style="fill:#ffffff;fill-opacity:1;fill-rule:evenodd;stroke:none"
                 id="path110"
                 inkscape:connector-curvature="0" />
              <path
                 d="m 501.672,463.457 236.297,0 0,30.168 -236.297,0 0,-30.168 z"
                 style="fill:none;stroke:#000000;stroke-width:9.56060028;stroke-linecap:butt;stroke-linejoin:miter;stroke-miterlimit:10;stroke-dasharray:none;stroke-opacity:1"
                 id="path112"
                 inkscape:connector-curvature="0" />
              <path
                 d="m 1791.32,748.594 105.27,0 0,114.84 -105.27,0 0,-114.84 z"
                 style="fill:none;stroke:#000000;stroke-width:19.12120056;stroke-linecap:butt;stroke-linejoin:miter;stroke-miterlimit:10;stroke-dasharray:none;stroke-opacity:1"
                 id="path114"
                 inkscape:connector-curvature="0" />
              <path
                 d="m 1112.04,92.6133 c 0,0 0,0 37.23,3.0976 37.22,3.0938 111.67,9.2851 182.2,31.5701 70.53,22.285 137.14,60.664 187.1,102.758 49.96,42.094 83.26,87.906 115.59,120.094 32.32,32.191 63.67,50.762 91.1,65 27.43,14.238 50.94,24.14 76.41,29.094 25.47,4.953 52.9,4.953 79.35,3.714 26.44,-1.238 51.91,-3.714 73.46,-9.285 21.56,-5.57 39.19,-14.238 61.72,-28.476 22.53,-14.239 49.96,-34.047 73.47,-58.809 23.51,-24.762 43.1,-54.476 76.4,-89.141 33.31,-34.668 80.33,-74.285 121.47,-100.285 41.15,-26 76.41,-38.379 122.45,-48.285 46.04,-9.902 102.86,-17.3319 131.27,-21.0467 28.4,-3.7149 28.4,-3.7149 28.4,-3.7149"
                 style="fill:#bfbfbf;fill-opacity:1;fill-rule:evenodd;stroke:none"
                 id="path116"
                 inkscape:connector-curvature="0" />
              <path
                 d="m 1112.04,92.6133 c 0,0 0,0 37.23,3.0976 37.22,3.0938 111.67,9.2851 182.2,31.5701 70.53,22.285 137.14,60.664 187.1,102.758 49.96,42.094 83.26,87.906 115.59,120.094 32.32,32.191 63.67,50.762 91.1,65 27.43,14.238 50.94,24.14 76.41,29.094 25.47,4.953 52.9,4.953 79.35,3.714 26.44,-1.238 51.91,-3.714 73.46,-9.285 21.56,-5.57 39.19,-14.238 61.72,-28.476 22.53,-14.239 49.96,-34.047 73.47,-58.809 23.51,-24.762 43.1,-54.476 76.4,-89.141 33.31,-34.668 80.33,-74.285 121.47,-100.285 41.15,-26 76.41,-38.379 122.45,-48.285 46.04,-9.902 102.86,-17.3319 131.27,-21.0467 28.4,-3.7149 28.4,-3.7149 28.4,-3.7149"
                 style="fill:none;stroke:#000000;stroke-width:19.12120056;stroke-linecap:butt;stroke-linejoin:miter;stroke-miterlimit:10;stroke-dasharray:none;stroke-opacity:1"
                 id="path118"
                 inkscape:connector-curvature="0" />
              <path
                 d="m 791.965,805.645 1036.515,0"
                 style="fill:none;stroke:#000000;stroke-width:19.12120056;stroke-linecap:butt;stroke-linejoin:miter;stroke-miterlimit:10;stroke-dasharray:none;stroke-opacity:1"
                 id="path120"
                 inkscape:connector-curvature="0" />
              <path
                 d="m 1704.2,846.57 163.7,-40.925 -163.7,-40.926"
                 style="fill:#000000;fill-opacity:1;fill-rule:evenodd;stroke:none"
                 id="path122"
                 inkscape:connector-curvature="0" />
              <path
                 d="m 1713.75,834.324 114.73,-28.679 -114.73,-28.684"
                 style="fill:none;stroke:#000000;stroke-width:19.12120056;stroke-linecap:butt;stroke-linejoin:miter;stroke-miterlimit:10;stroke-dasharray:none;stroke-opacity:1"
                 id="path124"
                 inkscape:connector-curvature="0" />
            </g>
          </g>
        </g>
      </g>
    </g>
    <path
       style="stroke:none"
       d="m 551.29102,110.14258 0,31.31445 56.82031,0 0,92.93359 -122.22852,0 0,-103.79296 -31.31445,0 0,135.10839 184.85742,0 0,-124.24902 46.7207,0 0,-31.31445 z"
       id="rect3657"
       inkscape:connector-curvature="0"
       sodipodi:nodetypes="ccccccccccccc" />
    <g
       id="g4473"
       transform="translate(2.2728432,57.831233)">
      <rect
         style="fill:#ffffff;stroke:#000000;stroke-width:1;stroke-miterlimit:4;stroke-dasharray:2, 1;stroke-dashoffset:0"
         id="rect3667"
         width="25.253799"
         height="45.456882"
         x="506.59149"
         y="76.049774"
         ry="8.586297" />
      <path
         inkscape:connector-curvature="0"
         id="path4469"
         d="m 519.21839,110.90003 0,65.15484"
         style="fill:#cc0000;fill-rule:evenodd;stroke:#cc0000;stroke-width:1px;stroke-linecap:butt;stroke-linejoin:miter;stroke-opacity:1" />
      <circle
         r="5.8083773"
         cy="177.31757"
         cx="519.21838"
         id="path4471"
         style="fill:#cc0000;stroke:none;stroke-width:1;stroke-miterlimit:4;stroke-dasharray:2, 1;stroke-dashoffset:0" />
      <rect
         transform="matrix(0,1,-1,0,0,0)"
         ry="1.91947"
         y="-524.29932"
         x="106.4915"
         height="10.161903"
         width="5.6454964"
         id="rect3665"
         style="fill:#000000;stroke:#000000;stroke-width:0.22355038" />
    </g>
    <text
       xml:space="preserve"
       style="font-style:normal;font-weight:normal;font-size:18.81606102px;line-height:125%;font-family:sans-serif;letter-spacing:0px;word-spacing:0px;fill:#000000;fill-opacity:1;stroke:none;stroke-width:1px;stroke-linecap:butt;stroke-linejoin:miter;stroke-opacity:1"
       x="527.7616"
       y="208.44514"
       id="text4479"
       sodipodi:linespacing="125%"><tspan
         sodipodi:role="line"
         id="tspan4481"
         x="527.7616"
         y="208.44514"
         style="font-style:italic;font-variant:normal;font-weight:500;font-stretch:normal;font-family:Flama;-inkscape-font-specification:'Flama Medium Italic'">d</tspan></text>
  </g>
</svg>
