<?xml version="1.0" encoding="UTF-8" standalone="no"?>
<!-- Created with Inkscape (http://www.inkscape.org/) -->

<svg
   xmlns:dc="http://purl.org/dc/elements/1.1/"
   xmlns:cc="http://creativecommons.org/ns#"
   xmlns:rdf="http://www.w3.org/1999/02/22-rdf-syntax-ns#"
   xmlns:svg="http://www.w3.org/2000/svg"
   xmlns="http://www.w3.org/2000/svg"
   xmlns:sodipodi="http://sodipodi.sourceforge.net/DTD/sodipodi-0.dtd"
   xmlns:inkscape="http://www.inkscape.org/namespaces/inkscape"
   width="156.7216mm"
   height="76.99102mm"
   viewBox="0 0 555.31277 272.80283"
   id="svg3559"
   version="1.1"
   inkscape:version="0.91 r13725"
   sodipodi:docname="mcl_likelihood_1.svg">
  <defs
     id="defs3561">
    <marker
       inkscape:stockid="Arrow2Mstart"
       orient="auto"
       refY="0"
       refX="0"
       id="Arrow2Mstart"
       style="overflow:visible"
       inkscape:isstock="true">
      <path
         id="path6165"
         style="fill:#000000;fill-opacity:1;fill-rule:evenodd;stroke:#000000;stroke-width:0.625;stroke-linejoin:round;stroke-opacity:1"
         d="M 8.7185878,4.0337352 -2.2072895,0.01601326 8.7185884,-4.0017078 c -1.7454984,2.3720609 -1.7354408,5.6174519 -6e-7,8.035443 z"
         transform="scale(0.6,0.6)"
         inkscape:connector-curvature="0" />
    </marker>
    <marker
       inkscape:stockid="Arrow1Mend"
       orient="auto"
       refY="0"
       refX="0"
       id="Arrow1Mend"
       style="overflow:visible"
       inkscape:isstock="true">
      <path
         id="path6150"
         d="M 0,0 5,-5 -12.5,0 5,5 0,0 Z"
         style="fill:#000000;fill-opacity:1;fill-rule:evenodd;stroke:#000000;stroke-width:1pt;stroke-opacity:1"
         transform="matrix(-0.4,0,0,-0.4,-4,0)"
         inkscape:connector-curvature="0" />
    </marker>
    <marker
       inkscape:stockid="Arrow2Mend"
       orient="auto"
       refY="0"
       refX="0"
       id="Arrow2Mend"
       style="overflow:visible"
       inkscape:isstock="true">
      <path
         id="path6168"
         style="fill:#000000;fill-opacity:1;fill-rule:evenodd;stroke:#000000;stroke-width:0.625;stroke-linejoin:round;stroke-opacity:1"
         d="M 8.7185878,4.0337352 -2.2072895,0.01601326 8.7185884,-4.0017078 c -1.7454984,2.3720609 -1.7354408,5.6174519 -6e-7,8.035443 z"
         transform="scale(-0.6,-0.6)"
         inkscape:connector-curvature="0" />
    </marker>
    <marker
       inkscape:stockid="Arrow1Lstart"
       orient="auto"
       refY="0"
       refX="0"
       id="Arrow1Lstart"
       style="overflow:visible"
       inkscape:isstock="true">
      <path
         id="path6141"
         d="M 0,0 5,-5 -12.5,0 5,5 0,0 Z"
         style="fill:#000000;fill-opacity:1;fill-rule:evenodd;stroke:#000000;stroke-width:1pt;stroke-opacity:1"
         transform="matrix(0.8,0,0,0.8,10,0)"
         inkscape:connector-curvature="0" />
    </marker>
    <clipPath
       clipPathUnits="userSpaceOnUse"
       id="clipPath48">
      <path
         d="M 0,0 258,0 258,88 0,88 0,0 Z"
         id="path50"
         inkscape:connector-curvature="0" />
    </clipPath>
    <clipPath
       id="clipPath5189"
       clipPathUnits="userSpaceOnUse">
      <path
         inkscape:connector-curvature="0"
         id="path5191"
         d="m 0,0 138.85547,0 0,96.8974 L 0,96.8974 0,0 Z" />
    </clipPath>
  </defs>
  <sodipodi:namedview
     id="base"
     pagecolor="#ffffff"
     bordercolor="#666666"
     borderopacity="1.0"
     inkscape:pageopacity="0.0"
     inkscape:pageshadow="2"
     inkscape:zoom="0.98994949"
     inkscape:cx="160.5377"
     inkscape:cy="223.35284"
     inkscape:document-units="px"
     inkscape:current-layer="layer1"
     showgrid="false"
     inkscape:window-width="1920"
     inkscape:window-height="1025"
     inkscape:window-x="0"
     inkscape:window-y="867"
     inkscape:window-maximized="1"
     fit-margin-top="0"
     fit-margin-left="0"
     fit-margin-right="0"
     fit-margin-bottom="0" />
  <metadata
     id="metadata3564">
    <rdf:RDF>
      <cc:Work
         rdf:about="">
        <dc:format>image/svg+xml</dc:format>
        <dc:type
           rdf:resource="http://purl.org/dc/dcmitype/StillImage" />
        <dc:title></dc:title>
      </cc:Work>
    </rdf:RDF>
  </metadata>
  <g
     inkscape:label="Layer 1"
     inkscape:groupmode="layer"
     id="layer1"
     transform="translate(-129.29924,-295.50892)">
    <path
       style="stroke:none"
       d="m 253.29602,358.45736 0,13.31445 72.82031,0 0,110.93359 -154.22852,0 0,-121.79296 -15.31445,0 0,135.10839 184.85742,0 0,-124.24902 46.7207,0 0,-13.31445 z"
       id="rect3657"
       inkscape:connector-curvature="0"
       sodipodi:nodetypes="ccccccccccccc" />
    <g
       id="g7086"
       transform="translate(-297.995,230.31478)">
      <g
         transform="translate(2.2728432,57.831233)"
         id="g4473">
        <rect
           ry="8.586297"
           y="76.049774"
           x="506.59149"
           height="45.456882"
           width="25.253799"
           id="rect3667"
           style="fill:#ffffff;stroke:#000000;stroke-width:1;stroke-miterlimit:4;stroke-dasharray:2, 1;stroke-dashoffset:0" />
        <path
           style="fill:#cc0000;fill-rule:evenodd;stroke:#cc0000;stroke-width:1.11654162px;stroke-linecap:butt;stroke-linejoin:miter;stroke-opacity:1"
           d="m 519.21839,110.90003 0,81.22627"
           id="path4469"
           inkscape:connector-curvature="0" />
        <circle
           style="fill:#cc0000;stroke:none;stroke-width:1;stroke-miterlimit:4;stroke-dasharray:2, 1;stroke-dashoffset:0"
           id="path4471"
           cx="519.21838"
           cy="194.03186"
           r="5.8083773" />
        <path
           inkscape:transform-center-y="32.256711"
           inkscape:transform-center-x="25.541756"
           inkscape:connector-curvature="0"
           id="path4505"
           d="m 518.80676,111.00683 -50.97455,63.24003"
           style="fill:#cc0000;fill-rule:evenodd;stroke:#cc0000;stroke-width:1.11654162px;stroke-linecap:butt;stroke-linejoin:miter;stroke-opacity:1" />
        <circle
           transform="matrix(0.77856631,0.62756234,-0.62756234,0.77856631,0,0)"
           inkscape:transform-center-y="65.360341"
           inkscape:transform-center-x="52.224892"
           r="5.8083773"
           cy="-156.02557"
           cx="473.58917"
           id="circle4507"
           style="fill:#cc0000;stroke:none;stroke-width:1;stroke-miterlimit:4;stroke-dasharray:2, 1;stroke-dashoffset:0" />
        <path
           sodipodi:nodetypes="cc"
           style="fill:#cc0000;fill-rule:evenodd;stroke:#cc0000;stroke-width:1.11654162px;stroke-linecap:butt;stroke-linejoin:miter;stroke-opacity:1"
           d="m 519.4727,110.5558 69.19013,83.96961"
           id="path4509"
           inkscape:connector-curvature="0"
           inkscape:transform-center-x="-26.241418"
           inkscape:transform-center-y="31.690137" />
        <circle
           style="fill:#cc0000;stroke:none;stroke-width:1;stroke-miterlimit:4;stroke-dasharray:2, 1;stroke-dashoffset:0"
           id="circle4511"
           cx="334.81592"
           cy="522.94086"
           r="5.8083773"
           inkscape:transform-center-x="-53.073938"
           inkscape:transform-center-y="64.672779"
           transform="matrix(0.77572119,-0.63107577,0.63107577,0.77572119,0,0)" />
        <path
           sodipodi:nodetypes="cc"
           inkscape:transform-center-y="-0.50733184"
           inkscape:transform-center-x="-41.141459"
           inkscape:connector-curvature="0"
           id="path4513"
           d="m 519.38984,109.8628 98.27204,0"
           style="fill:#cc0000;fill-rule:evenodd;stroke:#cc0000;stroke-width:1.11654162px;stroke-linecap:butt;stroke-linejoin:miter;stroke-opacity:1" />
        <circle
           transform="matrix(-0.00365042,-0.99999334,0.99999334,-0.00365042,0,0)"
           inkscape:transform-center-y="-0.66255353"
           inkscape:transform-center-x="-83.659893"
           r="5.8083773"
           cy="621.94073"
           cx="-111.97867"
           id="circle4515"
           style="fill:#cc0000;stroke:none;stroke-width:1;stroke-miterlimit:4;stroke-dasharray:2, 1;stroke-dashoffset:0" />
        <path
           sodipodi:nodetypes="cc"
           style="fill:#cc0000;fill-rule:evenodd;stroke:#cc0000;stroke-width:1.11654162px;stroke-linecap:butt;stroke-linejoin:miter;stroke-opacity:1"
           d="m 518.33223,110.72862 -50.03754,0.2046"
           id="path4517"
           inkscape:connector-curvature="0"
           inkscape:transform-center-x="41.142009"
           inkscape:transform-center-y="0.4607858" />
        <circle
           style="fill:#cc0000;stroke:none;stroke-width:1;stroke-miterlimit:4;stroke-dasharray:2, 1;stroke-dashoffset:0"
           id="circle4519"
           cx="112.11604"
           cy="-467.49713"
           r="5.8083773"
           inkscape:transform-center-x="83.660602"
           inkscape:transform-center-y="0.5679095"
           transform="matrix(0.00251903,0.99999683,-0.99999683,0.00251903,0,0)" />
        <rect
           style="fill:#000000;stroke:#000000;stroke-width:0.22355038"
           id="rect3665"
           width="5.6454964"
           height="10.161903"
           x="106.4915"
           y="-524.29932"
           ry="1.91947"
           transform="matrix(0,1,-1,0,0,0)" />
      </g>
      <text
         xml:space="preserve"
         style="font-style:normal;font-weight:normal;font-size:14.11742115px;line-height:125%;font-family:sans-serif;letter-spacing:0px;word-spacing:0px;fill:#000000;fill-opacity:1;stroke:none;stroke-width:1px;stroke-linecap:butt;stroke-linejoin:miter;stroke-opacity:1"
         x="524.97113"
         y="234.62875"
         id="text4525"
         sodipodi:linespacing="125%"><tspan
           sodipodi:role="line"
           id="tspan4527"
           x="524.97113"
           y="234.62875"
           style="font-style:italic;font-variant:normal;font-weight:500;font-stretch:normal;font-family:Flama;-inkscape-font-specification:'Flama Medium Italic'">r<tspan
   style="font-size:9.17632294px;baseline-shift:sub"
   id="tspan4529">3</tspan><tspan
   style="font-size:9.17632294px;baseline-shift:super"
   id="tspan4531">1</tspan></tspan></text>
      <text
         xml:space="preserve"
         style="font-style:normal;font-weight:normal;font-size:14.11742115px;line-height:125%;font-family:sans-serif;letter-spacing:0px;word-spacing:0px;fill:#000000;fill-opacity:1;stroke:none;stroke-width:1px;stroke-linecap:butt;stroke-linejoin:miter;stroke-opacity:1"
         x="561.25555"
         y="213.29997"
         id="text4533"
         sodipodi:linespacing="125%"><tspan
           sodipodi:role="line"
           id="tspan4535"
           x="561.25555"
           y="213.29997"
           style="font-style:italic;font-variant:normal;font-weight:500;font-stretch:normal;font-family:Flama;-inkscape-font-specification:'Flama Medium Italic'">r<tspan
   id="tspan4561"
   style="font-size:9.17632294px;baseline-shift:sub">4</tspan><tspan
   style="font-size:9.17632294px;baseline-shift:super"
   id="tspan4539">1</tspan></tspan></text>
      <text
         xml:space="preserve"
         style="font-style:normal;font-weight:normal;font-size:14.11742115px;line-height:125%;font-family:sans-serif;letter-spacing:0px;word-spacing:0px;fill:#000000;fill-opacity:1;stroke:none;stroke-width:1px;stroke-linecap:butt;stroke-linejoin:miter;stroke-opacity:1"
         x="562.33704"
         y="163.93661"
         id="text4541"
         sodipodi:linespacing="125%"><tspan
           sodipodi:role="line"
           id="tspan4543"
           x="562.33704"
           y="163.93661"
           style="font-style:italic;font-variant:normal;font-weight:500;font-stretch:normal;font-family:Flama;-inkscape-font-specification:'Flama Medium Italic'">r<tspan
   id="tspan4563"
   style="font-size:9.17632294px;baseline-shift:sub">5</tspan><tspan
   style="font-size:9.17632294px;baseline-shift:super"
   id="tspan4547">1</tspan></tspan></text>
      <text
         xml:space="preserve"
         style="font-style:normal;font-weight:normal;font-size:14.11742115px;line-height:125%;font-family:sans-serif;letter-spacing:0px;word-spacing:0px;fill:#000000;fill-opacity:1;stroke:none;stroke-width:1px;stroke-linecap:butt;stroke-linejoin:miter;stroke-opacity:1"
         x="480.67398"
         y="163.92601"
         id="text4549"
         sodipodi:linespacing="125%"><tspan
           sodipodi:role="line"
           id="tspan4551"
           x="480.67398"
           y="163.92601"
           style="font-style:italic;font-variant:normal;font-weight:500;font-stretch:normal;font-family:Flama;-inkscape-font-specification:'Flama Medium Italic'">r<tspan
   id="tspan4557"
   style="font-size:9.17632294px;baseline-shift:sub">1</tspan><tspan
   style="font-size:9.17632294px;baseline-shift:super"
   id="tspan4555">1</tspan></tspan></text>
      <text
         sodipodi:linespacing="125%"
         id="text4479"
         y="200.08125"
         x="476.99484"
         style="font-style:normal;font-weight:normal;font-size:14.11742115px;line-height:125%;font-family:sans-serif;letter-spacing:0px;word-spacing:0px;fill:#000000;fill-opacity:1;stroke:none;stroke-width:1px;stroke-linecap:butt;stroke-linejoin:miter;stroke-opacity:1"
         xml:space="preserve"><tspan
           style="font-style:italic;font-variant:normal;font-weight:500;font-stretch:normal;font-family:Flama;-inkscape-font-specification:'Flama Medium Italic'"
           y="200.08125"
           x="476.99484"
           id="tspan4481"
           sodipodi:role="line">r<tspan
   id="tspan4559"
   style="font-size:9.17632294px;baseline-shift:sub">2</tspan><tspan
   id="tspan4503"
   style="font-size:9.17632294px;baseline-shift:super">1</tspan></tspan></text>
    </g>
    <g
       id="g7019"
       transform="translate(-30.304576,-18.687822)">
      <path
         d="m 496.05156,369.11808 0.30362,-4e-5 0.30364,-5e-5 0.30364,-6e-5 0.30363,-7e-5 0.30364,-9e-5 0.30363,-1.2e-4 0.30363,-1.5e-4 0.30364,-1.9e-4 0.30363,-2.3e-4 0.30364,-2.8e-4 0.30363,-3.5e-4 0.30364,-3.6e-4 0.30364,-3.6e-4 0.30363,-7.2e-4 0.30363,-7.2e-4 0.30364,-10e-4 0.30363,-0.001 0.30363,-10e-4 0.30364,-0.002 0.30363,-0.002 0.30364,-0.003 0.30364,-0.003 0.30363,-0.004 0.30364,-0.005 0.30364,-0.005 0.30363,-0.006 0.30363,-0.008 0.30364,-0.009 0.30363,-0.0107 0.30364,-0.0126 0.30363,-0.0148 0.30363,-0.0174 0.30364,-0.0203 0.30363,-0.0236 0.30364,-0.0274 0.30364,-0.0318 0.30363,-0.0368 0.30363,-0.0423 0.30364,-0.0487 0.30363,-0.0558 0.30363,-0.0637 0.30364,-0.0726 0.30364,-0.0825 0.30363,-0.0935 0.30364,-0.10564 0.30363,-0.11903 0.30364,-0.1337 0.30363,-0.14978 0.30364,-0.16729 0.30363,-0.18633 0.30363,-0.2069 0.30364,-0.22909 0.30364,-0.25284 0.30362,-0.27835 0.30364,-0.30542 0.30364,-0.33416 0.30364,-0.36486 0.30363,-0.39506 0.30364,-0.42972 0.30363,-0.46437 0.30363,-0.49903 0.30364,-0.53749 0.30363,-0.57562 0.30364,-0.61338 0.30363,-0.65151 0.30364,-0.69345 0.30364,-0.72808 0.30363,-0.76933 0.30363,-0.80746 0.30364,-0.84246 0.30363,-0.87711 0.30364,-0.91176 0.30364,-0.93914 0.30362,-0.97069 0.30364,-0.99458 0.30364,-1.01607 0.30363,-1.02959 0.30364,-1.04623 0.30364,-1.05384 0.30363,-1.05385 0.30363,-1.05385 0.30364,-1.04658 0.30363,-1.0334 0.30364,-1.01503 0.30363,-0.98835 0.30363,-0.95682 0.30364,-0.91835 0.30363,-0.87364 0.30364,-0.82859 0.30364,-0.76933 0.30363,-0.71078 0.30364,-0.64838 0.30363,-0.57527 0.30364,-0.50214 0.30364,-0.42314 0.30362,-0.34308 0.30364,-0.26025 0.30364,-0.17293 0.30363,-0.0866 0.30364,-0.004 0.30364,0.0905 0.30364,0.17293 0.30363,0.26025 0.30363,0.34308 0.30363,0.42313 0.30364,0.49903 0.30364,0.57526 0.30363,0.6484 0.30363,0.71077 0.30364,0.76933 0.30364,0.82478 0.30364,0.87676 0.30363,0.91903 0.30363,0.95683 0.30364,0.98766 0.30363,1.01191 0.30364,1.03271 0.30363,1.04726 0.30363,1.05385 0.30364,1.05697 0.30363,1.05385 0.30364,1.04344 0.30364,1.03307 0.30364,1.01538 0.30362,0.99147 0.30364,0.97068 0.30364,0.94295 0.30363,0.90795 0.30363,0.88057 0.30364,0.84211 0.30363,0.80746 0.30364,0.76621 0.30364,0.73156 0.30363,0.69309 0.30363,0.65185 0.30364,0.61339 0.30364,0.57562 0.30363,0.53714 0.30363,0.49904 0.30364,0.46436 0.30363,0.43007 0.30363,0.39853 0.30364,0.36305 0.30364,0.33432 0.30363,0.30557 0.30364,0.27846 0.30364,0.253 0.30362,0.2292 0.30364,0.20702 0.30364,0.18642 0.30363,0.16738 0.30363,0.14985 0.30364,0.13379 0.30363,0.1191 0.30364,0.1057 0.30363,0.0936 0.30364,0.0826 0.30364,0.0727 0.30363,0.0638 0.30364,0.0558 0.30363,0.0487 0.30363,0.0424 0.30364,0.0368 0.30364,0.0318 0.30362,0.0275 0.30365,0.0236 0.30364,0.0203 0.30362,0.0174 0.30364,0.0148 0.30363,0.0126 0.30364,0.0107 0.30363,0.009 0.30363,0.008 0.30364,0.006 0.30363,0.005 0.30364,0.005 0.30364,0.004 0.30364,0.003 0.30362,0.003 0.30364,0.002 0.30364,0.002 0.30363,10e-4 0.30364,0.001 0.30363,10e-4 0.30363,7.2e-4 0.30364,7.1e-4 0.30363,3.6e-4 0.30364,3.6e-4 0.30364,3.6e-4 0.30363,2.8e-4 0.30364,2.4e-4 0.30363,1.8e-4 0.30363,1.5e-4 0.30364,1.2e-4 0.30363,9e-5 0.30363,8e-5 0.30364,5e-5 0.30364,5e-5 0.30363,4e-5"
         style="fill:#fcaf3e;stroke:#000000;stroke-width:0.53585923;stroke-linecap:butt;stroke-linejoin:miter;stroke-miterlimit:10;stroke-dasharray:none;stroke-opacity:1"
         id="path5195"
         inkscape:connector-curvature="0" />
      <path
         inkscape:connector-curvature="0"
         id="path5997"
         style="fill:#fcaf3e;stroke:#000000;stroke-width:0.53585923;stroke-linecap:butt;stroke-linejoin:miter;stroke-miterlimit:10;stroke-dasharray:none;stroke-opacity:1"
         d="m 536.05156,369.11808 0.30362,-4e-5 0.30364,-5e-5 0.30364,-6e-5 0.30363,-7e-5 0.30364,-9e-5 0.30363,-1.2e-4 0.30363,-1.5e-4 0.30364,-1.9e-4 0.30363,-2.3e-4 0.30364,-2.8e-4 0.30363,-3.5e-4 0.30364,-3.6e-4 0.30364,-3.6e-4 0.30363,-7.2e-4 0.30363,-7.2e-4 0.30364,-10e-4 0.30363,-0.001 0.30363,-10e-4 0.30364,-0.002 0.30363,-0.002 0.30364,-0.003 0.30364,-0.003 0.30363,-0.004 0.30364,-0.005 0.30364,-0.005 0.30363,-0.006 0.30363,-0.008 0.30364,-0.009 0.30363,-0.0107 0.30364,-0.0126 0.30363,-0.0148 0.30363,-0.0174 0.30364,-0.0203 0.30363,-0.0236 0.30364,-0.0274 0.30364,-0.0318 0.30363,-0.0368 0.30363,-0.0423 0.30364,-0.0487 0.30363,-0.0558 0.30363,-0.0637 0.30364,-0.0726 0.30364,-0.0825 0.30363,-0.0935 0.30364,-0.10564 0.30363,-0.11903 0.30364,-0.1337 0.30363,-0.14978 0.30364,-0.16729 0.30363,-0.18633 0.30363,-0.2069 0.30364,-0.22909 0.30364,-0.25284 0.30362,-0.27835 0.30364,-0.30542 0.30364,-0.33416 0.30364,-0.36486 0.30363,-0.39506 0.30364,-0.42972 0.30363,-0.46437 0.30363,-0.49903 0.30364,-0.53749 0.30363,-0.57562 0.30364,-0.61338 0.30363,-0.65151 0.30364,-0.69345 0.30364,-0.72808 0.30363,-0.76933 0.30363,-0.80746 0.30364,-0.84246 0.30363,-0.87711 0.30364,-0.91176 0.30364,-0.93914 0.30362,-0.97069 0.30364,-0.99458 0.30364,-1.01607 0.30363,-1.02959 0.30364,-1.04623 0.30364,-1.05384 0.30363,-1.05385 0.30363,-1.05385 0.30364,-1.04658 0.30363,-1.0334 0.30364,-1.01503 0.30363,-0.98835 0.30363,-0.95682 0.30364,-0.91835 0.30363,-0.87364 0.30364,-0.82859 0.30364,-0.76933 0.30363,-0.71078 0.30364,-0.64838 0.30363,-0.57527 0.30364,-0.50214 0.30364,-0.42314 0.30362,-0.34308 0.30364,-0.26025 0.30364,-0.17293 0.30363,-0.0866 0.30364,-0.004 0.30364,0.0905 0.30364,0.17293 0.30363,0.26025 0.30363,0.34308 0.30363,0.42313 0.30364,0.49903 0.30364,0.57526 0.30363,0.6484 0.30363,0.71077 0.30364,0.76933 0.30364,0.82478 0.30364,0.87676 0.30363,0.91903 0.30363,0.95683 0.30364,0.98766 0.30363,1.01191 0.30364,1.03271 0.30363,1.04726 0.30363,1.05385 0.30364,1.05697 0.30363,1.05385 0.30364,1.04344 0.30364,1.03307 0.30364,1.01538 0.30362,0.99147 0.30364,0.97068 0.30364,0.94295 0.30363,0.90795 0.30363,0.88057 0.30364,0.84211 0.30363,0.80746 0.30364,0.76621 0.30364,0.73156 0.30363,0.69309 0.30363,0.65185 0.30364,0.61339 0.30364,0.57562 0.30363,0.53714 0.30363,0.49904 0.30364,0.46436 0.30363,0.43007 0.30363,0.39853 0.30364,0.36305 0.30364,0.33432 0.30363,0.30557 0.30364,0.27846 0.30364,0.253 0.30362,0.2292 0.30364,0.20702 0.30364,0.18642 0.30363,0.16738 0.30363,0.14985 0.30364,0.13379 0.30363,0.1191 0.30364,0.1057 0.30363,0.0936 0.30364,0.0826 0.30364,0.0727 0.30363,0.0638 0.30364,0.0558 0.30363,0.0487 0.30363,0.0424 0.30364,0.0368 0.30364,0.0318 0.30362,0.0275 0.30365,0.0236 0.30364,0.0203 0.30362,0.0174 0.30364,0.0148 0.30363,0.0126 0.30364,0.0107 0.30363,0.009 0.30363,0.008 0.30364,0.006 0.30363,0.005 0.30364,0.005 0.30364,0.004 0.30364,0.003 0.30362,0.003 0.30364,0.002 0.30364,0.002 0.30363,10e-4 0.30364,0.001 0.30363,10e-4 0.30363,7.2e-4 0.30364,7.1e-4 0.30363,3.6e-4 0.30364,3.6e-4 0.30364,3.6e-4 0.30363,2.8e-4 0.30364,2.4e-4 0.30363,1.8e-4 0.30363,1.5e-4 0.30364,1.2e-4 0.30363,9e-5 0.30363,8e-5 0.30364,5e-5 0.30364,5e-5 0.30363,4e-5" />
      <path
         d="m 542.05156,369.11808 0.30362,-4e-5 0.30364,-5e-5 0.30364,-6e-5 0.30363,-7e-5 0.30364,-9e-5 0.30363,-1.2e-4 0.30363,-1.5e-4 0.30364,-1.9e-4 0.30363,-2.3e-4 0.30364,-2.8e-4 0.30363,-3.5e-4 0.30364,-3.6e-4 0.30364,-3.6e-4 0.30363,-7.2e-4 0.30363,-7.2e-4 0.30364,-10e-4 0.30363,-0.001 0.30363,-10e-4 0.30364,-0.002 0.30363,-0.002 0.30364,-0.003 0.30364,-0.003 0.30363,-0.004 0.30364,-0.005 0.30364,-0.005 0.30363,-0.006 0.30363,-0.008 0.30364,-0.009 0.30363,-0.0107 0.30364,-0.0126 0.30363,-0.0148 0.30363,-0.0174 0.30364,-0.0203 0.30363,-0.0236 0.30364,-0.0274 0.30364,-0.0318 0.30363,-0.0368 0.30363,-0.0423 0.30364,-0.0487 0.30363,-0.0558 0.30363,-0.0637 0.30364,-0.0726 0.30364,-0.0825 0.30363,-0.0935 0.30364,-0.10564 0.30363,-0.11903 0.30364,-0.1337 0.30363,-0.14978 0.30364,-0.16729 0.30363,-0.18633 0.30363,-0.2069 0.30364,-0.22909 0.30364,-0.25284 0.30362,-0.27835 0.30364,-0.30542 0.30364,-0.33416 0.30364,-0.36486 0.30363,-0.39506 0.30364,-0.42972 0.30363,-0.46437 0.30363,-0.49903 0.30364,-0.53749 0.30363,-0.57562 0.30364,-0.61338 0.30363,-0.65151 0.30364,-0.69345 0.30364,-0.72808 0.30363,-0.76933 0.30363,-0.80746 0.30364,-0.84246 0.30363,-0.87711 0.30364,-0.91176 0.30364,-0.93914 0.30362,-0.97069 0.30364,-0.99458 0.30364,-1.01607 0.30363,-1.02959 0.30364,-1.04623 0.30364,-1.05384 0.30363,-1.05385 0.30363,-1.05385 0.30364,-1.04658 0.30363,-1.0334 0.30364,-1.01503 0.30363,-0.98835 0.30363,-0.95682 0.30364,-0.91835 0.30363,-0.87364 0.30364,-0.82859 0.30364,-0.76933 0.30363,-0.71078 0.30364,-0.64838 0.30363,-0.57527 0.30364,-0.50214 0.30364,-0.42314 0.30362,-0.34308 0.30364,-0.26025 0.30364,-0.17293 0.30363,-0.0866 0.30364,-0.004 0.30364,0.0905 0.30364,0.17293 0.30363,0.26025 0.30363,0.34308 0.30363,0.42313 0.30364,0.49903 0.30364,0.57526 0.30363,0.6484 0.30363,0.71077 0.30364,0.76933 0.30364,0.82478 0.30364,0.87676 0.30363,0.91903 0.30363,0.95683 0.30364,0.98766 0.30363,1.01191 0.30364,1.03271 0.30363,1.04726 0.30363,1.05385 0.30364,1.05697 0.30363,1.05385 0.30364,1.04344 0.30364,1.03307 0.30364,1.01538 0.30362,0.99147 0.30364,0.97068 0.30364,0.94295 0.30363,0.90795 0.30363,0.88057 0.30364,0.84211 0.30363,0.80746 0.30364,0.76621 0.30364,0.73156 0.30363,0.69309 0.30363,0.65185 0.30364,0.61339 0.30364,0.57562 0.30363,0.53714 0.30363,0.49904 0.30364,0.46436 0.30363,0.43007 0.30363,0.39853 0.30364,0.36305 0.30364,0.33432 0.30363,0.30557 0.30364,0.27846 0.30364,0.253 0.30362,0.2292 0.30364,0.20702 0.30364,0.18642 0.30363,0.16738 0.30363,0.14985 0.30364,0.13379 0.30363,0.1191 0.30364,0.1057 0.30363,0.0936 0.30364,0.0826 0.30364,0.0727 0.30363,0.0638 0.30364,0.0558 0.30363,0.0487 0.30363,0.0424 0.30364,0.0368 0.30364,0.0318 0.30362,0.0275 0.30365,0.0236 0.30364,0.0203 0.30362,0.0174 0.30364,0.0148 0.30363,0.0126 0.30364,0.0107 0.30363,0.009 0.30363,0.008 0.30364,0.006 0.30363,0.005 0.30364,0.005 0.30364,0.004 0.30364,0.003 0.30362,0.003 0.30364,0.002 0.30364,0.002 0.30363,10e-4 0.30364,0.001 0.30363,10e-4 0.30363,7.2e-4 0.30364,7.1e-4 0.30363,3.6e-4 0.30364,3.6e-4 0.30364,3.6e-4 0.30363,2.8e-4 0.30364,2.4e-4 0.30363,1.8e-4 0.30363,1.5e-4 0.30364,1.2e-4 0.30363,9e-5 0.30363,8e-5 0.30364,5e-5 0.30364,5e-5 0.30363,4e-5"
         style="fill:#fcaf3e;stroke:#000000;stroke-width:0.53585923;stroke-linecap:butt;stroke-linejoin:miter;stroke-miterlimit:10;stroke-dasharray:none;stroke-opacity:1"
         id="path5999"
         inkscape:connector-curvature="0" />
      <path
         inkscape:connector-curvature="0"
         id="path6001"
         style="fill:#fcaf3e;stroke:#000000;stroke-width:0.53585923;stroke-linecap:butt;stroke-linejoin:miter;stroke-miterlimit:10;stroke-dasharray:none;stroke-opacity:1"
         d="m 584.05156,369.11808 0.30362,-4e-5 0.30364,-5e-5 0.30364,-6e-5 0.30363,-7e-5 0.30364,-9e-5 0.30363,-1.2e-4 0.30363,-1.5e-4 0.30364,-1.9e-4 0.30363,-2.3e-4 0.30364,-2.8e-4 0.30363,-3.5e-4 0.30364,-3.6e-4 0.30364,-3.6e-4 0.30363,-7.2e-4 0.30363,-7.2e-4 0.30364,-10e-4 0.30363,-0.001 0.30363,-10e-4 0.30364,-0.002 0.30363,-0.002 0.30364,-0.003 0.30364,-0.003 0.30363,-0.004 0.30364,-0.005 0.30364,-0.005 0.30363,-0.006 0.30363,-0.008 0.30364,-0.009 0.30363,-0.0107 0.30364,-0.0126 0.30363,-0.0148 0.30363,-0.0174 0.30364,-0.0203 0.30363,-0.0236 0.30364,-0.0274 0.30364,-0.0318 0.30363,-0.0368 0.30363,-0.0423 0.30364,-0.0487 0.30363,-0.0558 0.30363,-0.0637 0.30364,-0.0726 0.30364,-0.0825 0.30363,-0.0935 0.30364,-0.10564 0.30363,-0.11903 0.30364,-0.1337 0.30363,-0.14978 0.30364,-0.16729 0.30363,-0.18633 0.30363,-0.2069 0.30364,-0.22909 0.30364,-0.25284 0.30362,-0.27835 0.30364,-0.30542 0.30364,-0.33416 0.30364,-0.36486 0.30363,-0.39506 0.30364,-0.42972 0.30363,-0.46437 0.30363,-0.49903 0.30364,-0.53749 0.30363,-0.57562 0.30364,-0.61338 0.30363,-0.65151 0.30364,-0.69345 0.30364,-0.72808 0.30363,-0.76933 0.30363,-0.80746 0.30364,-0.84246 0.30363,-0.87711 0.30364,-0.91176 0.30364,-0.93914 0.30362,-0.97069 0.30364,-0.99458 0.30364,-1.01607 0.30363,-1.02959 0.30364,-1.04623 0.30364,-1.05384 0.30363,-1.05385 0.30363,-1.05385 0.30364,-1.04658 0.30363,-1.0334 0.30364,-1.01503 0.30363,-0.98835 0.30363,-0.95682 0.30364,-0.91835 0.30363,-0.87364 0.30364,-0.82859 0.30364,-0.76933 0.30363,-0.71078 0.30364,-0.64838 0.30363,-0.57527 0.30364,-0.50214 0.30364,-0.42314 0.30362,-0.34308 0.30364,-0.26025 0.30364,-0.17293 0.30363,-0.0866 0.30364,-0.004 0.30364,0.0905 0.30364,0.17293 0.30363,0.26025 0.30363,0.34308 0.30363,0.42313 0.30364,0.49903 0.30364,0.57526 0.30363,0.6484 0.30363,0.71077 0.30364,0.76933 0.30364,0.82478 0.30364,0.87676 0.30363,0.91903 0.30363,0.95683 0.30364,0.98766 0.30363,1.01191 0.30364,1.03271 0.30363,1.04726 0.30363,1.05385 0.30364,1.05697 0.30363,1.05385 0.30364,1.04344 0.30364,1.03307 0.30364,1.01538 0.30362,0.99147 0.30364,0.97068 0.30364,0.94295 0.30363,0.90795 0.30363,0.88057 0.30364,0.84211 0.30363,0.80746 0.30364,0.76621 0.30364,0.73156 0.30363,0.69309 0.30363,0.65185 0.30364,0.61339 0.30364,0.57562 0.30363,0.53714 0.30363,0.49904 0.30364,0.46436 0.30363,0.43007 0.30363,0.39853 0.30364,0.36305 0.30364,0.33432 0.30363,0.30557 0.30364,0.27846 0.30364,0.253 0.30362,0.2292 0.30364,0.20702 0.30364,0.18642 0.30363,0.16738 0.30363,0.14985 0.30364,0.13379 0.30363,0.1191 0.30364,0.1057 0.30363,0.0936 0.30364,0.0826 0.30364,0.0727 0.30363,0.0638 0.30364,0.0558 0.30363,0.0487 0.30363,0.0424 0.30364,0.0368 0.30364,0.0318 0.30362,0.0275 0.30365,0.0236 0.30364,0.0203 0.30362,0.0174 0.30364,0.0148 0.30363,0.0126 0.30364,0.0107 0.30363,0.009 0.30363,0.008 0.30364,0.006 0.30363,0.005 0.30364,0.005 0.30364,0.004 0.30364,0.003 0.30362,0.003 0.30364,0.002 0.30364,0.002 0.30363,10e-4 0.30364,0.001 0.30363,10e-4 0.30363,7.2e-4 0.30364,7.1e-4 0.30363,3.6e-4 0.30364,3.6e-4 0.30364,3.6e-4 0.30363,2.8e-4 0.30364,2.4e-4 0.30363,1.8e-4 0.30363,1.5e-4 0.30364,1.2e-4 0.30363,9e-5 0.30363,8e-5 0.30364,5e-5 0.30364,5e-5 0.30363,4e-5" />
      <path
         d="m 610.05156,369.11808 0.30362,-4e-5 0.30364,-5e-5 0.30364,-6e-5 0.30363,-7e-5 0.30364,-9e-5 0.30363,-1.2e-4 0.30363,-1.5e-4 0.30364,-1.9e-4 0.30363,-2.3e-4 0.30364,-2.8e-4 0.30363,-3.5e-4 0.30364,-3.6e-4 0.30364,-3.6e-4 0.30363,-7.2e-4 0.30363,-7.2e-4 0.30364,-10e-4 0.30363,-0.001 0.30363,-10e-4 0.30364,-0.002 0.30363,-0.002 0.30364,-0.003 0.30364,-0.003 0.30363,-0.004 0.30364,-0.005 0.30364,-0.005 0.30363,-0.006 0.30363,-0.008 0.30364,-0.009 0.30363,-0.0107 0.30364,-0.0126 0.30363,-0.0148 0.30363,-0.0174 0.30364,-0.0203 0.30363,-0.0236 0.30364,-0.0274 0.30364,-0.0318 0.30363,-0.0368 0.30363,-0.0423 0.30364,-0.0487 0.30363,-0.0558 0.30363,-0.0637 0.30364,-0.0726 0.30364,-0.0825 0.30363,-0.0935 0.30364,-0.10564 0.30363,-0.11903 0.30364,-0.1337 0.30363,-0.14978 0.30364,-0.16729 0.30363,-0.18633 0.30363,-0.2069 0.30364,-0.22909 0.30364,-0.25284 0.30362,-0.27835 0.30364,-0.30542 0.30364,-0.33416 0.30364,-0.36486 0.30363,-0.39506 0.30364,-0.42972 0.30363,-0.46437 0.30363,-0.49903 0.30364,-0.53749 0.30363,-0.57562 0.30364,-0.61338 0.30363,-0.65151 0.30364,-0.69345 0.30364,-0.72808 0.30363,-0.76933 0.30363,-0.80746 0.30364,-0.84246 0.30363,-0.87711 0.30364,-0.91176 0.30364,-0.93914 0.30362,-0.97069 0.30364,-0.99458 0.30364,-1.01607 0.30363,-1.02959 0.30364,-1.04623 0.30364,-1.05384 0.30363,-1.05385 0.30363,-1.05385 0.30364,-1.04658 0.30363,-1.0334 0.30364,-1.01503 0.30363,-0.98835 0.30363,-0.95682 0.30364,-0.91835 0.30363,-0.87364 0.30364,-0.82859 0.30364,-0.76933 0.30363,-0.71078 0.30364,-0.64838 0.30363,-0.57527 0.30364,-0.50214 0.30364,-0.42314 0.30362,-0.34308 0.30364,-0.26025 0.30364,-0.17293 0.30363,-0.0866 0.30364,-0.004 0.30364,0.0905 0.30364,0.17293 0.30363,0.26025 0.30363,0.34308 0.30363,0.42313 0.30364,0.49903 0.30364,0.57526 0.30363,0.6484 0.30363,0.71077 0.30364,0.76933 0.30364,0.82478 0.30364,0.87676 0.30363,0.91903 0.30363,0.95683 0.30364,0.98766 0.30363,1.01191 0.30364,1.03271 0.30363,1.04726 0.30363,1.05385 0.30364,1.05697 0.30363,1.05385 0.30364,1.04344 0.30364,1.03307 0.30364,1.01538 0.30362,0.99147 0.30364,0.97068 0.30364,0.94295 0.30363,0.90795 0.30363,0.88057 0.30364,0.84211 0.30363,0.80746 0.30364,0.76621 0.30364,0.73156 0.30363,0.69309 0.30363,0.65185 0.30364,0.61339 0.30364,0.57562 0.30363,0.53714 0.30363,0.49904 0.30364,0.46436 0.30363,0.43007 0.30363,0.39853 0.30364,0.36305 0.30364,0.33432 0.30363,0.30557 0.30364,0.27846 0.30364,0.253 0.30362,0.2292 0.30364,0.20702 0.30364,0.18642 0.30363,0.16738 0.30363,0.14985 0.30364,0.13379 0.30363,0.1191 0.30364,0.1057 0.30363,0.0936 0.30364,0.0826 0.30364,0.0727 0.30363,0.0638 0.30364,0.0558 0.30363,0.0487 0.30363,0.0424 0.30364,0.0368 0.30364,0.0318 0.30362,0.0275 0.30365,0.0236 0.30364,0.0203 0.30362,0.0174 0.30364,0.0148 0.30363,0.0126 0.30364,0.0107 0.30363,0.009 0.30363,0.008 0.30364,0.006 0.30363,0.005 0.30364,0.005 0.30364,0.004 0.30364,0.003 0.30362,0.003 0.30364,0.002 0.30364,0.002 0.30363,10e-4 0.30364,0.001 0.30363,10e-4 0.30363,7.2e-4 0.30364,7.1e-4 0.30363,3.6e-4 0.30364,3.6e-4 0.30364,3.6e-4 0.30363,2.8e-4 0.30364,2.4e-4 0.30363,1.8e-4 0.30363,1.5e-4 0.30364,1.2e-4 0.30363,9e-5 0.30363,8e-5 0.30364,5e-5 0.30364,5e-5 0.30363,4e-5"
         style="fill:#fcaf3e;stroke:#000000;stroke-width:0.53585923;stroke-linecap:butt;stroke-linejoin:miter;stroke-miterlimit:10;stroke-dasharray:none;stroke-opacity:1"
         id="path6003"
         inkscape:connector-curvature="0" />
      <text
         sodipodi:linespacing="125%"
         id="text6085"
         y="382.06598"
         x="569.67041"
         style="font-style:normal;font-weight:normal;font-size:14.11742115px;line-height:125%;font-family:sans-serif;letter-spacing:0px;word-spacing:0px;fill:#000000;fill-opacity:1;stroke:none;stroke-width:1px;stroke-linecap:butt;stroke-linejoin:miter;stroke-opacity:1"
         xml:space="preserve"><tspan
           style="font-style:italic;font-variant:normal;font-weight:500;font-stretch:normal;font-family:Flama;-inkscape-font-specification:'Flama Medium Italic'"
           y="382.06598"
           x="569.67041"
           id="tspan6087"
           sodipodi:role="line">r<tspan
   id="tspan6089"
   style="font-size:9.17632294px;baseline-shift:sub">3</tspan><tspan
   id="tspan6091"
   style="font-size:9.17632294px;baseline-shift:super" /></tspan></text>
      <text
         sodipodi:linespacing="125%"
         id="text6093"
         y="382.17609"
         x="610.62677"
         style="font-style:normal;font-weight:normal;font-size:14.11742115px;line-height:125%;font-family:sans-serif;letter-spacing:0px;word-spacing:0px;fill:#000000;fill-opacity:1;stroke:none;stroke-width:1px;stroke-linecap:butt;stroke-linejoin:miter;stroke-opacity:1"
         xml:space="preserve"><tspan
           style="font-style:italic;font-variant:normal;font-weight:500;font-stretch:normal;font-family:Flama;-inkscape-font-specification:'Flama Medium Italic'"
           y="382.17609"
           x="610.62677"
           id="tspan6095"
           sodipodi:role="line">r<tspan
   style="font-size:9.17632294px;baseline-shift:sub"
   id="tspan6097">4</tspan><tspan
   id="tspan6099"
   style="font-size:9.17632294px;baseline-shift:super" /></tspan></text>
      <text
         sodipodi:linespacing="125%"
         id="text6101"
         y="382.06598"
         x="636.20441"
         style="font-style:normal;font-weight:normal;font-size:14.11742115px;line-height:125%;font-family:sans-serif;letter-spacing:0px;word-spacing:0px;fill:#000000;fill-opacity:1;stroke:none;stroke-width:1px;stroke-linecap:butt;stroke-linejoin:miter;stroke-opacity:1"
         xml:space="preserve"><tspan
           style="font-style:italic;font-variant:normal;font-weight:500;font-stretch:normal;font-family:Flama;-inkscape-font-specification:'Flama Medium Italic'"
           y="382.06598"
           x="636.20441"
           id="tspan6103"
           sodipodi:role="line">r<tspan
   style="font-size:9.17632294px;baseline-shift:sub"
   id="tspan6105">5</tspan><tspan
   id="tspan6107"
   style="font-size:9.17632294px;baseline-shift:super" /></tspan></text>
      <text
         sodipodi:linespacing="125%"
         id="text6109"
         y="382.17609"
         x="522.97412"
         style="font-style:normal;font-weight:normal;font-size:14.11742115px;line-height:125%;font-family:sans-serif;letter-spacing:0px;word-spacing:0px;fill:#000000;fill-opacity:1;stroke:none;stroke-width:1px;stroke-linecap:butt;stroke-linejoin:miter;stroke-opacity:1"
         xml:space="preserve"><tspan
           style="font-style:italic;font-variant:normal;font-weight:500;font-stretch:normal;font-family:Flama;-inkscape-font-specification:'Flama Medium Italic'"
           y="382.17609"
           x="522.97412"
           id="tspan6111"
           sodipodi:role="line">r<tspan
   style="font-size:9.17632294px;baseline-shift:sub"
   id="tspan6113">1</tspan><tspan
   id="tspan6115"
   style="font-size:9.17632294px;baseline-shift:super" /></tspan></text>
      <text
         xml:space="preserve"
         style="font-style:normal;font-weight:normal;font-size:14.11742115px;line-height:125%;font-family:sans-serif;letter-spacing:0px;word-spacing:0px;fill:#000000;fill-opacity:1;stroke:none;stroke-width:1px;stroke-linecap:butt;stroke-linejoin:miter;stroke-opacity:1"
         x="559.06976"
         y="382.17609"
         id="text6117"
         sodipodi:linespacing="125%"><tspan
           sodipodi:role="line"
           id="tspan6119"
           x="559.06976"
           y="382.17609"
           style="font-style:italic;font-variant:normal;font-weight:500;font-stretch:normal;font-family:Flama;-inkscape-font-specification:'Flama Medium Italic'">r<tspan
   style="font-size:9.17632294px;baseline-shift:sub"
   id="tspan6121">2</tspan><tspan
   style="font-size:9.17632294px;baseline-shift:super"
   id="tspan6123" /></tspan></text>
      <path
         sodipodi:nodetypes="cc"
         inkscape:connector-curvature="0"
         id="path4589"
         d="m 697.51033,369.14194 -231.18391,0"
         style="fill:none;fill-rule:evenodd;stroke:#000000;stroke-width:1px;stroke-linecap:butt;stroke-linejoin:miter;stroke-opacity:1;marker-start:url(#Arrow2Mstart)" />
      <path
         style="fill:none;fill-rule:evenodd;stroke:#000000;stroke-width:1px;stroke-linecap:butt;stroke-linejoin:miter;stroke-opacity:1"
         d="m 526.41575,373.16089 0,-7.07107"
         id="path6127"
         inkscape:connector-curvature="0" />
      <path
         style="fill:none;fill-rule:evenodd;stroke:#000000;stroke-width:1px;stroke-linecap:butt;stroke-linejoin:miter;stroke-opacity:1"
         d="m 563.53886,373.16089 0,-7.07107"
         id="path6129"
         inkscape:connector-curvature="0" />
      <path
         style="fill:none;fill-rule:evenodd;stroke:#000000;stroke-width:1px;stroke-linecap:butt;stroke-linejoin:miter;stroke-opacity:1"
         d="m 571.36754,373.16089 0,-7.07107"
         id="path6131"
         inkscape:connector-curvature="0" />
      <path
         style="fill:none;fill-rule:evenodd;stroke:#000000;stroke-width:1px;stroke-linecap:butt;stroke-linejoin:miter;stroke-opacity:1"
         d="m 613.54141,373.16089 0,-7.07107"
         id="path6133"
         inkscape:connector-curvature="0" />
      <path
         inkscape:connector-curvature="0"
         id="path6125"
         d="m 639.55284,373.16089 0,-7.07107"
         style="fill:none;fill-rule:evenodd;stroke:#000000;stroke-width:1px;stroke-linecap:butt;stroke-linejoin:miter;stroke-opacity:1" />
      <path
         sodipodi:nodetypes="cc"
         inkscape:connector-curvature="0"
         id="path6135"
         d="m 466.41575,371.8216 0,-43.73178"
         style="fill:none;fill-rule:evenodd;stroke:#000000;stroke-width:1px;stroke-linecap:butt;stroke-linejoin:miter;stroke-opacity:1;marker-end:url(#Arrow2Mend)" />
      <text
         xml:space="preserve"
         style="font-style:normal;font-weight:normal;font-size:10.19815826px;line-height:125%;font-family:sans-serif;letter-spacing:0px;word-spacing:0px;fill:#000000;fill-opacity:1;stroke:none;stroke-width:1px;stroke-linecap:butt;stroke-linejoin:miter;stroke-opacity:1"
         x="677.50177"
         y="381.50882"
         id="text6999"
         sodipodi:linespacing="125%"><tspan
           sodipodi:role="line"
           id="tspan7001"
           x="677.50177"
           y="381.50882"
           style="font-style:italic;font-variant:normal;font-weight:500;font-stretch:normal;font-family:Flama;-inkscape-font-specification:'Flama Medium Italic'">distance</tspan></text>
      <text
         sodipodi:linespacing="125%"
         id="text7007"
         y="321.50882"
         x="448.57321"
         style="font-style:normal;font-weight:normal;font-size:10.19815826px;line-height:125%;font-family:sans-serif;letter-spacing:0px;word-spacing:0px;fill:#000000;fill-opacity:1;stroke:none;stroke-width:1px;stroke-linecap:butt;stroke-linejoin:miter;stroke-opacity:1"
         xml:space="preserve"><tspan
           style="font-style:italic;font-variant:normal;font-weight:500;font-stretch:normal;font-family:Flama;-inkscape-font-specification:'Flama Medium Italic'"
           y="321.50882"
           x="448.57321"
           id="tspan7009"
           sodipodi:role="line">likelihood</tspan></text>
      <text
         xml:space="preserve"
         style="font-style:normal;font-weight:normal;font-size:14.11742115px;line-height:125%;font-family:sans-serif;letter-spacing:0px;word-spacing:0px;fill:#000000;fill-opacity:1;stroke:none;stroke-width:1px;stroke-linecap:butt;stroke-linejoin:miter;stroke-opacity:1"
         x="445.47412"
         y="353.60464"
         id="text7011"
         sodipodi:linespacing="125%"><tspan
           sodipodi:role="line"
           id="tspan7013"
           x="445.47412"
           y="353.60464"
           style="font-style:italic;font-variant:normal;font-weight:500;font-stretch:normal;font-family:Flama;-inkscape-font-specification:'Flama Medium Italic'">r<tspan
   id="tspan7015"
   style="font-size:64.99999762%;baseline-shift:super">1</tspan></tspan></text>
    </g>
  </g>
</svg>
